<svg xmlns="http://www.w3.org/2000/svg" viewBox="0 0 80.97 80.97"><defs><style>.cls-1{fill:#fff;}.cls-2{fill:#282723;}.cls-3{fill:#e3dbd8;}.cls-4{fill:#3a3934;}.cls-5{fill:#bf3434;}.cls-6{fill:#8e1b1b;}.cls-7{fill:#a02222;}.cls-8{fill:#af2828;}.cls-9{fill:#d64741;}.cls-10{fill:#ef5c4e;}.cls-11{fill:#c9c91c;}.cls-12{fill:#d9e021;}.cls-13{fill:#359e3f;}.cls-14{fill:#45af4c;}.cls-15{fill:#ffc578;}.cls-16{fill:#ffb140;}.cls-17{fill:#ffa33e;}.cls-18{fill:#ee801e;}.cls-19{fill:#c43c00;}.cls-20{fill:#ffa25c;}.cls-21{fill:#e75b10;}</style></defs><title>iconos</title><g id="POST_2" data-name="POST 2"><path class="cls-1" d="M27.82,17.67c8.92,0,16.15,3.14,16.15,7s-7.23,7-16.15,7-16.15-3.14-16.15-7S18.9,17.67,27.82,17.67Zm14.8,7.38c.2-.18-.29-1.09-1.09-2s-1.61-1.54-1.81-1.36.29,1.09,1.09,2S42.42,25.24,42.62,25.06Zm-2,2.74c1.15-.35,2-.85,2-1.11s-1.07-.2-2.23.15-2,.84-2,1.11S39.49,28.15,40.65,27.8Zm-1-4.38c0-.28-1-.5-2.18-.5s-2.18.23-2.18.5,1,.5,2.18.5S39.67,23.69,39.67,23.41ZM38.29,21.2c.09-.26-.75-.82-1.88-1.25s-2.12-.57-2.21-.31.75.82,1.88,1.25S38.2,21.46,38.29,21.2Zm-.91,7.41c0-.28-1-.5-2.18-.5s-2.18.22-2.18.5,1,.5,2.18.5S37.38,28.89,37.38,28.62Zm-3.6-2.48c1.08-.56,1.86-1.21,1.74-1.46s-1.09,0-2.17.56-1.86,1.21-1.74,1.46S32.7,26.7,33.78,26.14Zm0-2.36c.09-.26-.75-.82-1.88-1.25s-2.12-.57-2.21-.31.75.82,1.88,1.25S33.73,24,33.82,23.78Zm-3.06-3.46c1.08-.56,1.86-1.21,1.74-1.46s-1.09,0-2.17.56-1.86,1.21-1.74,1.46S29.69,20.88,30.76,20.32ZM32,29.81c.08-.27-.78-.79-1.93-1.17s-2.14-.48-2.22-.21.79.79,1.93,1.17S31.9,30.08,32,29.81ZM30.5,28c.2-.18-.29-1.09-1.09-2s-1.61-1.54-1.81-1.36.29,1.09,1.09,2S30.3,28.14,30.5,28Zm-2.27-4.42c.08-.27-.78-.79-1.93-1.17s-2.14-.47-2.22-.21.78.79,1.93,1.17S28.14,23.8,28.22,23.54ZM28.66,19c0-.28-1-.5-2.18-.5s-2.18.22-2.18.5,1,.5,2.18.5S28.66,19.28,28.66,19ZM27,26.56c0-.28-1-.5-2.18-.5s-2.18.23-2.18.5,1,.5,2.18.5S27,26.84,27,26.56ZM25.9,29.88c0-.28-1-.5-2.18-.5s-2.18.23-2.18.5,1,.5,2.18.5S25.9,30.16,25.9,29.88ZM22.28,22.8c.25-.1.17-.93-.17-1.87s-.81-1.62-1.06-1.52-.17.93.17,1.87S22,22.9,22.28,22.8Zm-.41,1.85c.08-.27-.78-.79-1.93-1.17s-2.14-.47-2.22-.21.78.79,1.93,1.17S21.79,24.91,21.87,24.65ZM15.58,23c1.08-.56,1.86-1.21,1.74-1.46s-1.09,0-2.17.56-1.86,1.21-1.74,1.46S14.51,23.53,15.58,23Zm1.53,3.35c0-.28-1-.53-2.17-.57s-2.18.16-2.19.44,1,.53,2.17.57S17.11,26.6,17.12,26.33Z"/><path class="cls-2" d="M44.57,24.69V51c0,3-3.82,5.65-9.36,6.91A20.64,20.64,0,0,0,39,55.35c.31-.27.65-.66.53-1.06l-2.09-.82c-.26-.1-.57-.3-.51-.58a.61.61,0,0,1,.34-.36l2.23-1.26c3.48-2.19-10.08-1.69-8-3.33,2.12-1.82,5.27-1.59,7.67-3-1.77-.8-6.21,0-5.45-2.06,0-1.08,1.07-1.79,2-2.24,1.8-.85,8.44-1.06,5.57-2.08l-5.41-2.44c-.2-.09-.44-.21-.49-.44s.17-.52.38-.71l3.15-2.69c1.82-1.75-4.68,1-8.32,0C38.5,31.68,44.57,28.51,44.57,24.69Z"/><path class="cls-3" d="M41.53,23c.8.93,1.29,1.84,1.09,2s-1-.42-1.81-1.36-1.29-1.84-1.09-2S40.72,22.1,41.53,23Z"/><path class="cls-3" d="M42.61,26.68c.07.27-.8.76-2,1.11s-2.15.41-2.23.15.8-.76,2-1.11S42.53,26.42,42.61,26.68Z"/><path d="M41.24,38.56c2.86,1-3.78,1.23-5.57,2.08-.95.45-2,1.16-2,2.24-.76,2,3.68,1.26,5.45,2.06-2.4,1.4-5.55,1.17-7.67,3-2,1.64,11.53,1.14,8,3.33l-2.23,1.26a.61.61,0,0,0-.34.36c-.06.28.25.47.51.58l2.09.82c.12.4-.21.79-.53,1.06a20.64,20.64,0,0,1-3.77,2.59,33.73,33.73,0,0,1-7.39.79c-.91,0-1.8,0-2.67-.1a38.45,38.45,0,0,1-8-3.4c-.57-.32-1.22-.86-1.06-1.5l4.55-.33c.31,0,.72-.21.61-.5a18.86,18.86,0,0,1-3.51-2.17c-.15-.12-.32-.27-.31-.46s.29-.4.53-.48l4.75-1.64-6.49-3.82c-.22-.13-.48-.33-.44-.59s.24-.33.43-.42l3.48-1.7c.49-.24,1.06-.63,1-1.18a1.26,1.26,0,0,0-.58-.71l-3-2.18a3.38,3.38,0,0,1-.95-.92,1.18,1.18,0,0,1-.08-.16,1.13,1.13,0,0,1,.06-1.1c.28-.39.81-.45,1.25-.64,1.68-.73-.71-1.61-.47-2.68.2-.92,1.1-1,1.88-.86h0a32.5,32.5,0,0,0,9,1.21c.93,0,1.84,0,2.73-.1,3.64,1,10.14-1.73,8.32,0L35.72,35c-.21.18-.45.43-.38.71s.28.35.49.44Z"/><path class="cls-4" d="M18.8,31.17h0a18.26,18.26,0,0,1-4.45-1.92c-2-1.27-3.26-2.84-3.27-4.55v0c0-4.25,7.5-7.69,16.75-7.69s16.75,3.44,16.75,7.69c0,3.82-6.07,7-14,7.59-.89.07-1.8.1-2.73.1A32.5,32.5,0,0,1,18.8,31.17ZM44,24.69c0-3.87-7.23-7-16.15-7s-16.15,3.14-16.15,7,7.23,7,16.15,7S44,28.56,44,24.69Z"/><ellipse class="cls-3" cx="37.5" cy="23.41" rx="2.18" ry="0.5"/><path class="cls-3" d="M36.41,20c1.13.43,2,1,1.88,1.25s-1.08.12-2.21-.31-2-1-1.88-1.25S35.28,19.52,36.41,20Z"/><ellipse class="cls-3" cx="35.2" cy="28.62" rx="2.18" ry="0.5"/><path class="cls-3" d="M35.52,24.68c.12.25-.66.9-1.74,1.46s-2,.81-2.17.56.66-.9,1.74-1.46S35.4,24.43,35.52,24.68Z"/><path class="cls-3" d="M31.94,22.53c1.13.43,2,1,1.88,1.25s-1.08.12-2.21-.31-2-1-1.88-1.25S30.81,22.1,31.94,22.53Z"/><path class="cls-3" d="M32.5,18.86c.12.25-.66.9-1.74,1.46s-2,.81-2.17.56.66-.9,1.74-1.46S32.38,18.62,32.5,18.86Z"/><path class="cls-3" d="M30,28.65c1.15.38,2,.9,1.93,1.17s-1.07.17-2.22-.21-2-.9-1.93-1.17S28.9,28.26,30,28.65Z"/><path class="cls-3" d="M29.4,25.93c.8.93,1.29,1.84,1.09,2s-1-.42-1.81-1.36-1.29-1.84-1.09-2S28.6,25,29.4,25.93Z"/><path class="cls-3" d="M26.3,22.37c1.15.38,2,.9,1.93,1.17s-1.07.17-2.22-.21-2-.9-1.93-1.17S25.15,22,26.3,22.37Z"/><ellipse class="cls-3" cx="26.48" cy="19.01" rx="2.18" ry="0.5"/><ellipse class="cls-3" cx="24.81" cy="26.56" rx="2.18" ry="0.5"/><ellipse class="cls-3" cx="23.72" cy="29.88" rx="2.18" ry="0.5"/><path class="cls-2" d="M17.15,55.22a38.45,38.45,0,0,0,8,3.4c-5.21-.38-9.62-1.87-12-3.92-.08-.94,2.65-1.63,1.18-2.41a4.2,4.2,0,0,1-1.61-1.4A1.47,1.47,0,0,1,13,49c.45-.26,1.82-1.12,1.74-1.64a.82.82,0,0,0-.31-.45c-.93-.86-.85-1.18-1.78-2a.81.81,0,0,1-.29-.42c-.06-.36.34-.59.67-.72,1.28-.48,2.72-1.55,1.7-2.3-2.38-.82-1.88-1.82-1.45-2.45a4.12,4.12,0,0,1,1.28-1,1.4,1.4,0,0,0,.77-1.32l0-.12.75-.07a1.18,1.18,0,0,0,.08.16,3.38,3.38,0,0,0,.95.92l3,2.18a1.26,1.26,0,0,1,.58.71c.1.54-.47.94-1,1.18l-3.48,1.7c-.19.09-.4.22-.43.42s.22.46.44.59l6.49,3.82L18,49.77c-.24.08-.53.22-.53.48s.16.34.31.46a18.86,18.86,0,0,0,3.51,2.17c.11.29-.31.48-.61.5l-4.55.33C15.92,54.36,16.57,54.89,17.15,55.22Z"/><path class="cls-3" d="M22.11,20.94c.34.93.42,1.77.17,1.87s-.72-.58-1.06-1.52-.42-1.77-.17-1.87S21.77,20,22.11,20.94Z"/><path class="cls-3" d="M19.93,23.48c1.15.38,2,.9,1.93,1.17s-1.08.17-2.22-.21-2-.9-1.93-1.17S18.79,23.1,19.93,23.48Z"/><path class="cls-2" d="M18.79,31.17c-.78-.1-1.68-.06-1.88.86-.24,1.07,2.15,1.95.47,2.68-.44.19-1,.26-1.25.64a1.13,1.13,0,0,0-.06,1.1l-.75.07a1.53,1.53,0,0,0-.57-.67c-.85-.63-2.37-.59-2.38-1.66,0-.87,3.41-.67,1.85-2.48a2.66,2.66,0,0,1-.77-1.43c0-.53.4-1.1.89-1A18.26,18.26,0,0,0,18.79,31.17Z"/><path class="cls-3" d="M17.32,21.52c.12.25-.66.9-1.74,1.46s-2,.81-2.17.56.66-.9,1.74-1.46S17.2,21.27,17.32,21.52Z"/><ellipse class="cls-3" cx="14.94" cy="26.26" rx="0.5" ry="2.18" transform="matrix(0.03, -1, 1, 0.03, -11.71, 40.5)"/><path class="cls-4" d="M15.35,36.64A1.4,1.4,0,0,1,14.58,38a4.12,4.12,0,0,0-1.28,1c-.43.63-.93,1.63,1.45,2.45,1,.75-.42,1.82-1.7,2.3-.33.12-.73.36-.67.72a.81.81,0,0,0,.29.42c.94.86.85,1.18,1.78,2a.82.82,0,0,1,.31.45c.08.52-1.3,1.38-1.74,1.64a1.47,1.47,0,0,0-.34,1.94,4.2,4.2,0,0,0,1.61,1.4c1.47.78-1.26,1.48-1.18,2.41a4.92,4.92,0,0,1-2-3.68V24.7c0,1.7,1.22,3.27,3.27,4.55-.49-.07-.92.5-.89,1a2.66,2.66,0,0,0,.77,1.43c1.56,1.81-1.86,1.61-1.85,2.48,0,1.07,1.53,1,2.38,1.66a1.53,1.53,0,0,1,.57.67Z"/><path class="cls-3" d="M19.47,28.39c1.08-.56,1.86-1.21,1.74-1.46s-1.09,0-2.17.56-1.85,1.21-1.74,1.46S18.4,28.95,19.47,28.39Z"/><g id="_Grupo_" data-name="&lt;Grupo&gt;"><path class="cls-5" d="M35.93,22.28a11.54,11.54,0,0,1-.21,3.47,3,3,0,0,1-.5,1.37,2.33,2.33,0,0,1-1.71.76l.23-1.06a1.82,1.82,0,0,0,1.06-.67,3.11,3.11,0,0,0,.47-1.37,12.24,12.24,0,0,0,.2-3.47,5.35,5.35,0,0,0-.08-.58,1.68,1.68,0,0,1,.18.23A2.93,2.93,0,0,1,35.93,22.28Z"/><path class="cls-6" d="M32.43,26.94a5.51,5.51,0,0,0,1.31-.13l-.23,1.06c-.27,0-.55,0-.82,0H31.35l.2-1Z"/><path class="cls-6" d="M27.39,26.95h2.71c-.08.32-.15.64-.23,1H27.18C27.24,27.59,27.32,27.27,27.39,26.95Z"/><path class="cls-6" d="M24.68,26.95h1.11c-.08.32-.15.64-.23,1H23.7c.07-.32.14-.64.21-1Z"/><path class="cls-6" d="M22.17,26.81c-.09.33-.17.66-.25,1a6.84,6.84,0,0,1-1.33-.32,1.68,1.68,0,0,1-.81-.52,1.88,1.88,0,0,1-.14-1.54,6.94,6.94,0,0,1,.83-2,7.19,7.19,0,0,0-.32,1A2,2,0,0,0,20.28,26a1.55,1.55,0,0,0,.76.52A6.23,6.23,0,0,0,22.17,26.81Z"/><path class="cls-7" d="M35.3,20.66a55.54,55.54,0,0,0-1.56,6.16,5.51,5.51,0,0,1-1.31.13h-.87c.33-1.55.66-3.12,1.09-4.64,1.58-.55,2.28-1.35,1.43-2.2h0A2.42,2.42,0,0,1,35.3,20.66Z"/><path class="cls-7" d="M31.43,22.64a33.3,33.3,0,0,0-1.32,4.31H27.39A36.82,36.82,0,0,1,28.53,23,18.78,18.78,0,0,0,31.43,22.64Z"/><path class="cls-7" d="M26.95,23a34.82,34.82,0,0,0-1.16,3.9H23.91c.28-1.33.56-2.68.88-4l.82.07C26.06,23,26.51,23,26.95,23Z"/><path class="cls-7" d="M22.86,21a5.89,5.89,0,0,1,.57-.29c-.18.1-2.26,1.35.11,2a28.56,28.56,0,0,0-1.37,4.09,6.23,6.23,0,0,1-1.12-.3,1.55,1.55,0,0,1-.76-.52,2,2,0,0,1-.13-1.54,7.19,7.19,0,0,1,.32-1A6.82,6.82,0,0,1,22.86,21Z"/><path class="cls-8" d="M34.07,20.1c.85.85.16,1.65-1.43,2.2.21-.77.45-1.53.72-2.28h0a4.94,4.94,0,0,1,.7.08Z"/><path class="cls-8" d="M32.67,20a19.71,19.71,0,0,0-1.25,2.63,18.78,18.78,0,0,1-2.9.37,21.14,21.14,0,0,1,1.31-3Z"/><path class="cls-8" d="M28.3,20.1A20.65,20.65,0,0,0,26.95,23c-.44,0-.89,0-1.34,0l-.82-.07c.22-.91.47-1.82.75-2.71C26,20.18,27.06,20.13,28.3,20.1Z"/><path class="cls-8" d="M24.78,20.32a18,18,0,0,0-1.24,2.39c-2.36-.62-.28-1.86-.11-2h0A6.15,6.15,0,0,1,24.78,20.32Z"/><path class="cls-9" d="M35.47,21.31a12.24,12.24,0,0,1-.2,3.47,3.11,3.11,0,0,1-.47,1.37,1.82,1.82,0,0,1-1.06.67,55.54,55.54,0,0,1,1.56-6.16l.08.08A5.35,5.35,0,0,1,35.47,21.31Z"/><path class="cls-5" d="M30.11,26.94h1.45l-.2,1H29.88C30,27.59,30,27.26,30.11,26.94Z"/><path class="cls-5" d="M25.79,26.95h1.6c-.08.32-.15.64-.22,1H25.56C25.64,27.59,25.71,27.27,25.79,26.95Z"/><path class="cls-5" d="M23.91,26.94c-.07.32-.14.65-.21,1a13.52,13.52,0,0,1-1.77-.11c.08-.33.16-.66.25-1A11.56,11.56,0,0,0,23.91,26.94Z"/><path class="cls-9" d="M32.65,22.3c-.43,1.53-.76,3.09-1.09,4.64H30.11a33.3,33.3,0,0,1,1.32-4.31A10.7,10.7,0,0,0,32.65,22.3Z"/><path class="cls-9" d="M28.53,23a36.82,36.82,0,0,0-1.14,3.94h-1.6A34.82,34.82,0,0,1,26.95,23C27.49,23.05,28,23,28.53,23Z"/><path class="cls-9" d="M24.79,22.92c-.32,1.33-.6,2.68-.88,4a11.56,11.56,0,0,1-1.74-.13,28.56,28.56,0,0,1,1.37-4.09A8.6,8.6,0,0,0,24.79,22.92Z"/><path class="cls-10" d="M32.67,20h.69c-.27.75-.51,1.51-.72,2.28a10.7,10.7,0,0,1-1.22.34A19.71,19.71,0,0,1,32.67,20Z"/><path class="cls-10" d="M29.84,20.05a21.14,21.14,0,0,0-1.31,3c-.51,0-1,0-1.58,0A20.65,20.65,0,0,1,28.3,20.1Z"/><path class="cls-10" d="M25.45,20.22h.09c-.28.89-.53,1.8-.75,2.71a8.6,8.6,0,0,1-1.25-.21,18,18,0,0,1,1.24-2.39A6.16,6.16,0,0,1,25.45,20.22Z"/></g><path class="cls-1" d="M68.59,31.69c0,3.83-7.13,7.1-16,7.29s-16-2.76-16.07-6.59,7.13-7.1,16-7.29S68.57,27.86,68.59,31.69Zm-28.92-.35c.79-.94,1.27-1.85,1.07-2s-1,.44-1.79,1.38-1.27,1.85-1.07,2S38.88,32.28,39.67,31.34Zm2.4,4.15c.07-.26-.8-.74-2-1.06s-2.14-.37-2.21-.1.8.74,2,1.06S42,35.76,42.07,35.49Zm.89-4c1.2,0,2.16-.27,2.16-.54s-1-.48-2.17-.45-2.16.27-2.16.54S41.77,31.51,43,31.48Zm1.39-3c1.12-.45,2-1,1.86-1.28s-1.07-.1-2.19.36-2,1-1.86,1.28S43.23,28.91,44.35,28.46Zm.92,8.12c1.2,0,2.16-.27,2.16-.54s-1-.48-2.17-.45-2.16.27-2.16.54S44.08,36.61,45.27,36.58Zm3.54-2.47c.12-.25-.66-.88-1.73-1.4s-2-.76-2.15-.51.66.88,1.73,1.41S48.7,34.36,48.81,34.11Zm0-3.19c1.12-.45,1.95-1,1.86-1.28s-1.07-.1-2.19.35-2,1-1.86,1.28S47.68,31.37,48.8,30.92Zm3-2.63c.12-.25-.66-.88-1.73-1.41s-2-.76-2.15-.51.66.88,1.73,1.41S51.65,28.54,51.77,28.29Zm-1.09,8.65c1.13-.4,2-.94,1.91-1.2s-1.07-.15-2.2.26-2,.93-1.91,1.2S49.54,37.34,50.68,36.94Zm1-3c.79-.94,1.27-1.85,1.07-2s-1,.44-1.79,1.38-1.27,1.85-1.07,2S50.93,34.89,51.72,33.95Zm2.64-3.3c1.13-.4,2-.94,1.91-1.2s-1.07-.15-2.2.26-2,.94-1.91,1.2S53.23,31.05,54.36,30.65Zm-.5-3.77c1.2,0,2.16-.27,2.16-.54s-1-.48-2.17-.45-2.16.27-2.16.54S52.67,26.91,53.86,26.89Zm1.71,7.44c1.2,0,2.16-.27,2.16-.54s-1-.48-2.17-.45-2.16.27-2.16.54S54.38,34.35,55.57,34.32Zm1.1,3.26c1.2,0,2.16-.27,2.16-.54s-1-.48-2.16-.45-2.16.27-2.16.54S55.48,37.61,56.67,37.58Zm2.42-9.05c.33-.93.4-1.76.16-1.85s-.71.59-1,1.52-.4,1.76-.16,1.85S58.76,29.46,59.09,28.53Zm1.59,3.08c1.14-.4,2-.94,1.91-1.2s-1.07-.15-2.2.26-2,.94-1.91,1.2S59.55,32,60.68,31.62Zm6.17-1c.12-.25-.66-.88-1.73-1.41s-2-.76-2.15-.51.66.88,1.73,1.41S66.74,30.84,66.85,30.59Zm-1.47,3.22c1.2-.06,2.15-.33,2.15-.61s-1-.45-2.18-.38-2.15.33-2.15.61S64.18,33.88,65.38,33.81Z"/><path class="cls-2" d="M35.95,32.4l.17,26.07c0,3,3.82,5.51,9.33,6.63a20.06,20.06,0,0,1-3.76-2.48c-.31-.26-.65-.64-.53-1l2.06-.86c.26-.11.56-.31.5-.58s-.2-.27-.34-.35l-2.22-1.2c-3.47-2.1,10-1.89,8-3.47-2.12-1.76-5.24-1.46-7.63-2.8,1.76-.83,6.16-.18,5.4-2.16,0-1.07-1.07-1.75-2-2.17-1.79-.81-8.38-.86-5.54-1.94l5.35-2.53c.2-.1.43-.22.48-.45s-.17-.51-.38-.69L41.65,39.8c-1.82-1.69,4.65.92,8.26-.2C42,39.19,36,36.18,35.95,32.4Z"/><path class="cls-3" d="M39,30.7c-.79.94-1.27,1.85-1.07,2s1-.44,1.79-1.38,1.27-1.85,1.07-2S39.75,29.75,39,30.7Z"/><path class="cls-3" d="M37.91,34.34c-.07.26.8.74,2,1.06s2.14.36,2.21.1-.8-.74-2-1.06S38,34.07,37.91,34.34Z"/><path d="M39.34,46.06c-2.83,1.08,3.76,1.13,5.54,1.94.94.43,2,1.1,2,2.17.77,2-3.64,1.33-5.4,2.16,2.39,1.34,5.51,1,7.63,2.8,2,1.58-11.43,1.37-8,3.47l2.22,1.2c.15.08.31.18.34.35s-.25.47-.5.58l-2.06.86c-.12.4.21.78.53,1a20.06,20.06,0,0,0,3.76,2.48,33.41,33.41,0,0,0,7.34.62c.9,0,1.79-.07,2.65-.16A38.85,38.85,0,0,0,63.36,62c.57-.33,1.21-.87,1-1.51l-4.52-.23c-.3,0-.72-.19-.61-.48a19.11,19.11,0,0,0,3.47-2.22c.15-.12.31-.27.31-.46s-.29-.39-.53-.46l-4.72-1.52,6.41-3.93c.22-.13.47-.33.43-.59s-.24-.32-.43-.41l-3.47-1.61c-.48-.23-1.05-.6-1-1.14a1.27,1.27,0,0,1,.57-.71l2.93-2.23a3.43,3.43,0,0,0,.94-.93,1.18,1.18,0,0,0,.08-.16,1.12,1.12,0,0,0-.06-1.09C64,42,63.43,41.9,63,41.72c-1.67-.68.7-1.61.45-2.66s-1.1-.92-1.88-.81h0a32.54,32.54,0,0,1-9,1.39c-.92,0-1.83,0-2.71,0-3.61,1.11-10.07-1.5-8.26.2l3.14,2.59c.21.18.44.42.38.69s-.28.35-.48.45Z"/><path class="cls-4" d="M52.61,39.65c-.92,0-1.83,0-2.71,0C42,39.19,36,36.18,35.95,32.4c0-4.2,7.39-7.78,16.57-8s16.64,3,16.67,7.25v0C69.19,33.38,68,35,66,36.26a18.45,18.45,0,0,1-4.4,2h0A32.54,32.54,0,0,1,52.61,39.65Zm0-.67c8.85-.19,16-3.45,16-7.29s-7.22-6.78-16.07-6.59-16,3.46-16,7.29S43.76,39.17,52.61,39Z"/><path class="cls-3" d="M43,30.49c-1.19,0-2.16.27-2.16.54s1,.48,2.16.45,2.16-.27,2.16-.54S44.15,30.47,43,30.49Z"/><path class="cls-3" d="M44,27.54c-1.12.45-2,1-1.86,1.28s1.07.1,2.19-.36,2-1,1.86-1.28S45.13,27.08,44,27.54Z"/><path class="cls-3" d="M45.26,35.59c-1.19,0-2.16.27-2.16.54s1,.47,2.16.45,2.16-.27,2.16-.54S46.46,35.56,45.26,35.59Z"/><path class="cls-3" d="M44.93,32.2c-.12.25.66.88,1.73,1.41s2,.76,2.15.5-.66-.88-1.73-1.4S45,32,44.93,32.2Z"/><path class="cls-3" d="M48.47,30c-1.12.45-2,1-1.86,1.28s1.08.1,2.19-.35,1.95-1,1.86-1.28S49.59,29.54,48.47,30Z"/><path class="cls-3" d="M47.88,26.38c-.12.25.66.88,1.73,1.41s2,.76,2.15.51-.66-.88-1.73-1.41S48,26.13,47.88,26.38Z"/><path class="cls-3" d="M50.38,36c-1.14.4-2,.93-1.91,1.2s1.07.14,2.2-.26,2-.94,1.91-1.2S51.52,35.6,50.38,36Z"/><path class="cls-3" d="M51,33.3c-.79.94-1.27,1.85-1.07,2s1-.44,1.79-1.38,1.27-1.85,1.07-2S51.8,32.36,51,33.3Z"/><path class="cls-3" d="M54.07,29.71c-1.13.4-2,.94-1.91,1.2s1.07.14,2.2-.26,2-.94,1.91-1.2S55.2,29.31,54.07,29.71Z"/><path class="cls-3" d="M53.85,25.89c-1.19,0-2.16.27-2.16.54s1,.48,2.16.45S56,26.61,56,26.34,55.05,25.87,53.85,25.89Z"/><path class="cls-3" d="M55.57,33.33c-1.19,0-2.16.27-2.16.54s1,.48,2.16.45,2.16-.27,2.16-.54S56.76,33.31,55.57,33.33Z"/><path class="cls-3" d="M56.67,36.59c-1.2,0-2.16.27-2.16.54s1,.48,2.16.45,2.16-.27,2.16-.54S57.86,36.57,56.67,36.59Z"/><path class="cls-2" d="M63.36,62a38.85,38.85,0,0,1-7.92,3.54c5.17-.49,9.53-2.06,11.93-4.14.07-.93-2.64-1.56-1.19-2.36a4.26,4.26,0,0,0,1.59-1.42,1.45,1.45,0,0,0-.35-1.91c-.45-.25-1.82-1.07-1.74-1.59a.83.83,0,0,1,.3-.45c.92-.87.83-1.19,1.76-2.06a.82.82,0,0,0,.28-.42c.06-.35-.34-.58-.67-.7-1.28-.45-2.71-1.48-1.71-2.24,2.36-.86,1.85-1.84,1.43-2.46a4,4,0,0,0-1.28-.93A1.36,1.36,0,0,1,65,43.6l0-.12-.75-.06a1.18,1.18,0,0,1-.08.16,3.43,3.43,0,0,1-.94.93l-2.93,2.23a1.27,1.27,0,0,0-.57.71c-.1.54.47.92,1,1.14l3.47,1.61c.19.09.4.21.43.41s-.21.46-.43.59l-6.41,3.93,4.72,1.52c.24.07.52.21.53.46s-.16.34-.31.46a19.11,19.11,0,0,1-3.47,2.22c-.11.29.31.47.61.48l4.52.23C64.57,61.15,63.93,61.69,63.36,62Z"/><path class="cls-3" d="M58.21,28.21c-.33.93-.4,1.76-.16,1.85s.71-.59,1-1.52.4-1.76.16-1.85S58.54,27.27,58.21,28.21Z"/><path class="cls-3" d="M60.39,30.68c-1.14.4-2,.94-1.91,1.2s1.07.14,2.2-.26,2-.94,1.91-1.2S61.52,30.27,60.39,30.68Z"/><path class="cls-2" d="M61.57,38.26c.77-.11,1.67-.09,1.88.81s-2.12,2-.45,2.66c.43.18,1,.23,1.24.61a1.12,1.12,0,0,1,.06,1.09l.75.06a1.55,1.55,0,0,1,.56-.68c.84-.64,2.35-.64,2.35-1.7,0-.86-3.39-.58-1.85-2.41a2.68,2.68,0,0,0,.75-1.43c0-.52-.4-1.08-.89-1A18.45,18.45,0,0,1,61.57,38.26Z"/><path class="cls-3" d="M63,28.67c-.12.25.66.88,1.73,1.41s2,.76,2.15.51-.66-.88-1.73-1.41S63.08,28.43,63,28.67Z"/><path class="cls-3" d="M65.34,32.82c-1.2.06-2.15.33-2.15.61s1,.45,2.18.38,2.15-.33,2.15-.61S66.54,32.76,65.34,32.82Z"/><path class="cls-4" d="M65,43.6a1.36,1.36,0,0,0,.77,1.29,4,4,0,0,1,1.28.93c.43.61.93,1.6-1.43,2.46-1,.76.43,1.79,1.71,2.24.33.12.73.34.67.7a.82.82,0,0,1-.28.42c-.92.87-.83,1.19-1.76,2.06a.83.83,0,0,0-.3.45c-.07.52,1.3,1.34,1.74,1.59a1.45,1.45,0,0,1,.35,1.91,4.26,4.26,0,0,1-1.59,1.42c-1.45.8,1.26,1.43,1.19,2.36a5,5,0,0,0,2-3.68l-.17-26.05C69.19,33.38,68,35,66,36.26c.49-.08.92.48.89,1a2.68,2.68,0,0,1-.75,1.43C64.57,40.52,68,40.24,68,41.11c0,1.06-1.51,1.06-2.35,1.7a1.55,1.55,0,0,0-.56.68Z"/><path class="cls-3" d="M60.87,35.52C59.8,35,59,34.36,59.14,34.11s1.08,0,2.15.51S63.14,35.78,63,36,61.95,36.05,60.87,35.52Z"/><g id="_Grupo_2" data-name="&lt;Grupo&gt;"><path class="cls-11" d="M46.06,28.5a9.5,9.5,0,0,0-1.24,1.26,6.78,6.78,0,0,0-1.55,4l2.2-1.1v0A7.87,7.87,0,0,1,46.06,28.5Z"/><path class="cls-12" d="M45.46,32.65c4.1-2,10-4.77,11.35-5.38-1.12-1.16-3.13-2.49-5.17-1.92a10.35,10.35,0,0,0-2.05.87,19.68,19.68,0,0,0-3.53,2.28,7.87,7.87,0,0,0-.61,4.12Z"/><path class="cls-13" d="M51.61,23.77v0a5.79,5.79,0,0,0-.61.11,8.71,8.71,0,0,0-2.05.88,15,15,0,0,0-4.77,3.54,6.13,6.13,0,0,0-1.3,5.67l.39-.2a6.78,6.78,0,0,1,1.55-4,9.5,9.5,0,0,1,1.24-1.26A9.74,9.74,0,0,1,51.61,23.77Z"/><path class="cls-14" d="M57.07,27.15c.08-.55-1.92-3.83-5.46-3.4v0a9.74,9.74,0,0,0-5.55,4.73,19.68,19.68,0,0,1,3.53-2.28,10.35,10.35,0,0,1,2.05-.87c2-.57,4,.76,5.17,1.92Z"/></g><g id="_Grupo_3" data-name="&lt;Grupo&gt;"><path class="cls-15" d="M60.38,28.72A18.38,18.38,0,0,0,53.62,32a22.42,22.42,0,0,1,6.29-1.53,12.48,12.48,0,0,0,3.25-.64c1.31-.58-.21-1.26-1.06-1.36A4.17,4.17,0,0,0,60.38,28.72Z"/><path class="cls-16" d="M52.42,31a52.43,52.43,0,0,1,5.78-2.71,9.29,9.29,0,0,1,3.73-.9,4,4,0,0,1,3.31,1.67l.12.21a2.87,2.87,0,0,1-.42,1A6,6,0,0,1,62.88,32a60.54,60.54,0,0,1-6.27,3,2.62,2.62,0,0,1-1.1.29,2.64,2.64,0,0,1-1.62-1,5.81,5.81,0,0,1-1.33-1.73A2.38,2.38,0,0,1,52.42,31Zm7.5-.63a12.48,12.48,0,0,0,3.25-.64c1.31-.58-.21-1.26-1.06-1.36a4.17,4.17,0,0,0-1.73.29A18.38,18.38,0,0,0,53.62,32,22.42,22.42,0,0,1,59.92,30.42Z"/><path class="cls-17" d="M51.59,31.76c-.45.79.16,1.74.74,2.4a5.54,5.54,0,0,0,2.67,2c1.34.31,2.7-.36,3.93-1l4.93-2.63a3.09,3.09,0,0,0,1.71-1.62,2.08,2.08,0,0,0-.22-1.53,2.87,2.87,0,0,1-.42,1A6,6,0,0,1,62.88,32a60.54,60.54,0,0,1-6.27,3,2.62,2.62,0,0,1-1.1.29,2.64,2.64,0,0,1-1.62-1,5.81,5.81,0,0,1-1.33-1.73A2.38,2.38,0,0,1,52.42,31l-.06,0A2,2,0,0,0,51.59,31.76Z"/></g><g id="_Grupo_4" data-name="&lt;Grupo&gt;"><path class="cls-18" d="M48.26,30.56a1.46,1.46,0,0,1,1,1.78,1.43,1.43,0,0,1-1.72,1.09,1.46,1.46,0,0,1-1-1.78A1.44,1.44,0,0,1,48.26,30.56Zm.88,1.74a1,1,0,0,0,0-.12v0a1.31,1.31,0,0,0-.94-1.47,1.28,1.28,0,0,0-1.51.85v0l0,.11a1.31,1.31,0,0,0,.92,1.6A1.29,1.29,0,0,0,49.15,32.3Z"/><path class="cls-19" d="M47.59,33.28a1.29,1.29,0,0,0,1.55-1,1,1,0,0,0,0-.12,1.29,1.29,0,0,1-1.51.85,1.3,1.3,0,0,1-.94-1.47l0,.11A1.31,1.31,0,0,0,47.59,33.28Z"/><path class="cls-20" d="M48,31.59c1-.17.74,1.22.88.65A1,1,0,0,0,48.16,31a1,1,0,0,0-1.23.78C46.79,32.31,47.71,31.63,48,31.59Z"/><path class="cls-21" d="M46.71,31.55a1.28,1.28,0,0,1,1.51-.85,1.31,1.31,0,0,1,.94,1.47v0a1.29,1.29,0,0,1-1.51.85,1.3,1.3,0,0,1-.94-1.47Zm2.18.69A1,1,0,0,0,48.16,31a1,1,0,0,0-1.23.78c-.14.57.78-.11,1.08-.16C49,31.42,48.75,32.8,48.89,32.24Z"/></g><g id="_Grupo_5" data-name="&lt;Grupo&gt;"><path class="cls-18" d="M45.76,31.52a1.46,1.46,0,0,1,1,1.78,1.43,1.43,0,0,1-1.72,1.09,1.46,1.46,0,0,1-1-1.78A1.44,1.44,0,0,1,45.76,31.52Zm.88,1.74a1,1,0,0,0,0-.12v0a1.31,1.31,0,0,0-.94-1.47,1.28,1.28,0,0,0-1.51.85v0l0,.11a1.31,1.31,0,0,0,.92,1.6A1.29,1.29,0,0,0,46.64,33.26Z"/><path class="cls-19" d="M45.09,34.24a1.29,1.29,0,0,0,1.55-1,1,1,0,0,0,0-.12,1.29,1.29,0,0,1-1.51.85,1.3,1.3,0,0,1-.94-1.47l0,.11A1.31,1.31,0,0,0,45.09,34.24Z"/><path class="cls-20" d="M45.5,32.55c1-.17.74,1.22.88.65a1,1,0,0,0-.73-1.27,1,1,0,0,0-1.23.78C44.29,33.27,45.21,32.59,45.5,32.55Z"/><path class="cls-21" d="M44.21,32.51a1.28,1.28,0,0,1,1.51-.85,1.31,1.31,0,0,1,.94,1.47v0a1.29,1.29,0,0,1-1.51.85,1.3,1.3,0,0,1-.94-1.47Zm2.18.69a1,1,0,0,0-.73-1.27,1,1,0,0,0-1.23.78c-.14.57.78-.11,1.08-.16C46.53,32.38,46.25,33.76,46.39,33.2Z"/></g><g id="_Grupo_6" data-name="&lt;Grupo&gt;"><path class="cls-18" d="M50.23,32a1.46,1.46,0,0,1,1,1.78,1.43,1.43,0,0,1-1.72,1.09,1.46,1.46,0,0,1-1-1.78A1.44,1.44,0,0,1,50.23,32Zm.88,1.74a1,1,0,0,0,0-.12v0a1.31,1.31,0,0,0-.94-1.47,1.28,1.28,0,0,0-1.51.85v0l0,.11a1.31,1.31,0,0,0,.92,1.6A1.29,1.29,0,0,0,51.11,33.73Z"/><path class="cls-19" d="M49.56,34.71a1.29,1.29,0,0,0,1.55-1,1,1,0,0,0,0-.12,1.29,1.29,0,0,1-1.51.85A1.3,1.3,0,0,1,48.68,33l0,.11A1.31,1.31,0,0,0,49.56,34.71Z"/><path class="cls-20" d="M50,33c1-.17.74,1.22.88.65a1,1,0,0,0-.73-1.27,1,1,0,0,0-1.23.78C48.76,33.74,49.68,33.06,50,33Z"/><path class="cls-21" d="M48.68,33a1.28,1.28,0,0,1,1.51-.85,1.31,1.31,0,0,1,.94,1.47v0a1.29,1.29,0,0,1-1.51.85A1.3,1.3,0,0,1,48.68,33Zm2.18.69a1,1,0,0,0-.73-1.27,1,1,0,0,0-1.23.78c-.14.57.78-.11,1.08-.16C51,32.85,50.72,34.23,50.86,33.67Z"/></g><g id="_Grupo_7" data-name="&lt;Grupo&gt;"><path class="cls-18" d="M47.77,32.78a1.46,1.46,0,0,1,1,1.78,1.43,1.43,0,0,1-1.72,1.09,1.46,1.46,0,0,1-1-1.78A1.44,1.44,0,0,1,47.77,32.78Zm.88,1.74a1,1,0,0,0,0-.12v0a1.31,1.31,0,0,0-.94-1.47,1.28,1.28,0,0,0-1.51.85v0l0,.11a1.31,1.31,0,0,0,.92,1.6A1.29,1.29,0,0,0,48.66,34.52Z"/><path class="cls-19" d="M47.1,35.5a1.29,1.29,0,0,0,1.55-1,1,1,0,0,0,0-.12,1.29,1.29,0,0,1-1.51.85,1.3,1.3,0,0,1-.94-1.47l0,.11A1.31,1.31,0,0,0,47.1,35.5Z"/><path class="cls-20" d="M47.52,33.81c1-.17.74,1.22.88.65a1,1,0,0,0-.73-1.27,1,1,0,0,0-1.23.78C46.3,34.53,47.22,33.85,47.52,33.81Z"/><path class="cls-21" d="M46.22,33.77a1.28,1.28,0,0,1,1.51-.85,1.31,1.31,0,0,1,.94,1.47v0a1.29,1.29,0,0,1-1.51.85,1.3,1.3,0,0,1-.94-1.47Zm2.18.69a1,1,0,0,0-.73-1.27,1,1,0,0,0-1.23.78c-.14.57.78-.11,1.08-.16C48.54,33.64,48.26,35,48.4,34.46Z"/></g><g id="_Grupo_8" data-name="&lt;Grupo&gt;"><path class="cls-18" d="M45.29,33.27a1.46,1.46,0,0,1,1,1.78,1.43,1.43,0,0,1-1.72,1.09,1.46,1.46,0,0,1-1-1.78A1.44,1.44,0,0,1,45.29,33.27ZM46.17,35a1,1,0,0,0,0-.12v0a1.31,1.31,0,0,0-.94-1.47,1.28,1.28,0,0,0-1.51.85v0l0,.11a1.31,1.31,0,0,0,.92,1.6A1.29,1.29,0,0,0,46.17,35Z"/><path class="cls-19" d="M44.62,36a1.29,1.29,0,0,0,1.55-1,1,1,0,0,0,0-.12,1.29,1.29,0,0,1-1.51.85,1.3,1.3,0,0,1-.94-1.47l0,.11A1.31,1.31,0,0,0,44.62,36Z"/><path class="cls-20" d="M45,34.3c1-.17.74,1.22.88.65a1,1,0,0,0-.73-1.27,1,1,0,0,0-1.23.78C43.81,35,44.74,34.35,45,34.3Z"/><path class="cls-21" d="M43.74,34.26a1.28,1.28,0,0,1,1.51-.85,1.31,1.31,0,0,1,.94,1.47v0a1.29,1.29,0,0,1-1.51.85,1.3,1.3,0,0,1-.94-1.47Zm2.18.69a1,1,0,0,0-.73-1.27,1,1,0,0,0-1.23.78c-.14.57.78-.11,1.08-.16C46.05,34.13,45.77,35.52,45.91,34.95Z"/></g><g id="_Grupo_9" data-name="&lt;Grupo&gt;"><path class="cls-18" d="M49.7,34.07a1.46,1.46,0,0,1,1,1.78A1.43,1.43,0,0,1,49,36.93a1.46,1.46,0,0,1-1-1.78A1.44,1.44,0,0,1,49.7,34.07Zm.88,1.74a1,1,0,0,0,0-.12v0a1.31,1.31,0,0,0-.94-1.47,1.28,1.28,0,0,0-1.51.85v0l0,.11a1.31,1.31,0,0,0,.92,1.6A1.29,1.29,0,0,0,50.59,35.81Z"/><path class="cls-19" d="M49,36.79a1.29,1.29,0,0,0,1.55-1,1,1,0,0,0,0-.12,1.29,1.29,0,0,1-1.51.85,1.3,1.3,0,0,1-.94-1.47l0,.11A1.31,1.31,0,0,0,49,36.79Z"/><path class="cls-20" d="M49.45,35.09c1-.17.74,1.22.88.65a1,1,0,0,0-.73-1.27,1,1,0,0,0-1.23.78C48.23,35.82,49.15,35.14,49.45,35.09Z"/><path class="cls-21" d="M48.15,35.06a1.28,1.28,0,0,1,1.51-.85,1.31,1.31,0,0,1,.94,1.47v0a1.29,1.29,0,0,1-1.51.85,1.3,1.3,0,0,1-.94-1.47Zm2.18.69a1,1,0,0,0-.73-1.27,1,1,0,0,0-1.23.78c-.14.57.78-.11,1.08-.16C50.47,34.93,50.19,36.31,50.33,35.75Z"/></g><g id="_Grupo_10" data-name="&lt;Grupo&gt;"><path class="cls-18" d="M47,35a1.46,1.46,0,0,1,1,1.78,1.43,1.43,0,0,1-1.72,1.09,1.46,1.46,0,0,1-1-1.78A1.44,1.44,0,0,1,47,35Zm.88,1.74a1,1,0,0,0,0-.12v0A1.31,1.31,0,0,0,47,35.19a1.28,1.28,0,0,0-1.51.85v0l0,.11a1.31,1.31,0,0,0,.92,1.6A1.29,1.29,0,0,0,47.92,36.79Z"/><path class="cls-19" d="M46.37,37.77a1.29,1.29,0,0,0,1.55-1,1,1,0,0,0,0-.12,1.29,1.29,0,0,1-1.51.85,1.3,1.3,0,0,1-.94-1.47l0,.11A1.31,1.31,0,0,0,46.37,37.77Z"/><path class="cls-20" d="M46.78,36.08c1-.17.74,1.22.88.65a1,1,0,0,0-.73-1.27,1,1,0,0,0-1.23.78C45.57,36.8,46.49,36.12,46.78,36.08Z"/><path class="cls-21" d="M45.49,36A1.28,1.28,0,0,1,47,35.19a1.31,1.31,0,0,1,.94,1.47v0a1.29,1.29,0,0,1-1.51.85,1.3,1.3,0,0,1-.94-1.47Zm2.18.69a1,1,0,0,0-.73-1.27,1,1,0,0,0-1.23.78c-.14.57.78-.11,1.08-.16C47.81,35.91,47.53,37.29,47.67,36.73Z"/></g><g id="_Grupo_11" data-name="&lt;Grupo&gt;"><path class="cls-18" d="M48.5,35.45a1.46,1.46,0,0,1,1,1.78,1.43,1.43,0,0,1-1.72,1.09,1.46,1.46,0,0,1-1-1.78A1.44,1.44,0,0,1,48.5,35.45Zm.88,1.74a1,1,0,0,0,0-.12v0a1.31,1.31,0,0,0-.94-1.47,1.28,1.28,0,0,0-1.51.85v0l0,.11a1.31,1.31,0,0,0,.92,1.6A1.29,1.29,0,0,0,49.38,37.2Z"/><path class="cls-19" d="M47.83,38.18a1.29,1.29,0,0,0,1.55-1,1,1,0,0,0,0-.12,1.29,1.29,0,0,1-1.51.85,1.3,1.3,0,0,1-.94-1.47l0,.11A1.31,1.31,0,0,0,47.83,38.18Z"/><path class="cls-20" d="M48.25,36.48c1-.17.74,1.22.88.65a1,1,0,0,0-.73-1.27,1,1,0,0,0-1.23.78C47,37.2,47.95,36.53,48.25,36.48Z"/><path class="cls-21" d="M46.95,36.44a1.28,1.28,0,0,1,1.51-.85,1.31,1.31,0,0,1,.94,1.47v0a1.29,1.29,0,0,1-1.51.85,1.3,1.3,0,0,1-.94-1.47Zm2.18.69a1,1,0,0,0-.73-1.27,1,1,0,0,0-1.23.78c-.14.57.78-.11,1.08-.16C49.27,36.32,49,37.7,49.13,37.13Z"/></g></g></svg>