<svg id="POST_5" data-name="POST 5" xmlns="http://www.w3.org/2000/svg" viewBox="0 0 80.97 80.97"><defs><style>.cls-1{fill:#cc6315;}.cls-2{fill:#db6d23;}.cls-3{fill:#a08144;}.cls-4{fill:#b79955;}.cls-5{fill:#ff9239;}.cls-6{fill:#ccb069;}.cls-7{fill:#e2c675;}.cls-8{fill:#eace88;}</style></defs><title>iconos</title><path class="cls-1" d="M6,31.49a9.38,9.38,0,0,0,3,7.26,16.61,16.61,0,0,0,7.11,3.78S6.82,37.25,6,31.49Z"/><path class="cls-2" d="M20.3,44.25A21.15,21.15,0,0,1,16.13,53a11.55,11.55,0,0,1,2.29-10.27A26.69,26.69,0,0,1,9.18,34.1c.55-.32,5.7,1.76,9.29,5.93a3,3,0,0,1,0-.84A24.51,24.51,0,0,0,8.31,31.84,4,4,0,0,0,6,31.49c.79,5.76,10.15,11,10.15,11a7.71,7.71,0,0,0-1.73,1.61h0c-2.86,4.23,1.2,11.29,1.2,11.29,6.27-7.39,5.1-10.56,5-10.73h0l0,0A2.23,2.23,0,0,1,20.3,44.25Z"/><path class="cls-3" d="M20,38.23a9.81,9.81,0,0,1,2.12-1.47,9.44,9.44,0,0,0,2.14-1.86c-.6.33-1.24.59-1.87.86a6.77,6.77,0,0,0-3.58,2.66,2.55,2.55,0,0,0-.26.77l.48.61.35.16A2.29,2.29,0,0,1,20,38.23Z"/><path class="cls-4" d="M71.93,49.18A22.53,22.53,0,0,0,72,46.67c0-.8-.11-1.79-.86-2.07a2.11,2.11,0,0,0,.11-2.44,1.85,1.85,0,0,1-2.43,1.1,2.33,2.33,0,0,1-.42,2.26,1.43,1.43,0,0,1-2.11,0,3.27,3.27,0,0,1-3.81,2.19,4.52,4.52,0,0,1-3.22-3.32,3.24,3.24,0,0,1-5.12-2.42,4.46,4.46,0,0,1-5-2.18,5.87,5.87,0,0,1-3.37.34,3.31,3.31,0,0,1-2.46-2.17,3.21,3.21,0,0,1-4-1.18,3.85,3.85,0,0,1-3.76-1.09,2.18,2.18,0,0,1-2.19,1,4.21,4.21,0,0,1-2.25-1.17,1.9,1.9,0,0,1-1.32,1.74A1.4,1.4,0,0,1,28,36.12a3.42,3.42,0,0,1-3,1.64.53.53,0,0,1-.49-.21c-.1-.19,0-.41.16-.58l2.63-3.54A6.22,6.22,0,0,1,28.69,32a3.12,3.12,0,0,1,1.63-.56,3.6,3.6,0,0,1,1.48-3.18,3.5,3.5,0,0,0-3.46,3.22c-1-.24-1.62,1-2.22,1.85a5.45,5.45,0,0,1-1.91,1.57,9.44,9.44,0,0,1-2.14,1.86A9.81,9.81,0,0,0,20,38.23,2.29,2.29,0,0,0,19.33,40a1.43,1.43,0,0,0,.24.65c.19.28.49.5.55.83a2.85,2.85,0,0,1,0,.62h0l0,0a0,0,0,0,1,0,0c0,.59.6,1,1.16,1.18a3.47,3.47,0,0,0,3.21-.68c.37-.32.71-.75,1.2-.83a3.88,3.88,0,0,1,1.11.13c1,.13,2-.55,2.92-.92,1.47-.55,3.1-.38,4.66-.58A17.73,17.73,0,0,1,37,40.11a9.44,9.44,0,0,1,3.41,1l3.91,1.67a8.6,8.6,0,0,1,2.53,1.44c1,1,1.83,2.55,3.25,2.54a4.93,4.93,0,0,1,1,0c.55.11.9.63,1.31,1a6.27,6.27,0,0,0,1.59,1l2.89,1.4a10.36,10.36,0,0,0,3.86,1.27,4.9,4.9,0,0,1,1.76.21c.36.16.64.44,1,.63a2.3,2.3,0,0,0,3-.86,2.41,2.41,0,0,0,3.71-1.23A3.48,3.48,0,0,0,71.93,49.18Z"/><path class="cls-3" d="M20.08,42.05a2.85,2.85,0,0,0,0-.62c-.06-.33-.36-.55-.55-.83a1.43,1.43,0,0,1-.24-.65L19,39.79l-.48-.61a3,3,0,0,0,0,.84A2.15,2.15,0,0,0,20.08,42.05Z"/><path class="cls-1" d="M20.3,44.25a1.76,1.76,0,0,1-.22-2.15.34.34,0,0,1,0-.05,2.15,2.15,0,0,1-1.62-2c-3.58-4.17-8.74-6.25-9.29-5.93a26.69,26.69,0,0,0,9.24,8.64A11.55,11.55,0,0,0,16.13,53,21.15,21.15,0,0,0,20.3,44.25Z"/><path class="cls-5" d="M20.08,42.05a.34.34,0,0,0,0,.05l0,0Z"/><path class="cls-1" d="M20.68,44.7c.07.17,1.24,3.35-5,10.73,0,0-4.05-7.06-1.2-11.29A8.12,8.12,0,0,0,12.74,50a16,16,0,0,0,1.12,3.84l1.41,3.67a26.82,26.82,0,0,1,3.73-4,8.53,8.53,0,0,0,2.7-4.68A6.36,6.36,0,0,0,20.68,44.7Z"/><path class="cls-6" d="M68.87,43.26a1.85,1.85,0,0,0,2.43-1.1A8.35,8.35,0,0,1,70.1,40c-.16-.69.53-1.49.28-2.33A8.5,8.5,0,0,0,68.91,36a5,5,0,0,0-3.79-4.73,6.52,6.52,0,0,0-2.91-3.51c0-.05,0-.1,0-.16a2.07,2.07,0,0,0-1-1.44,13.06,13.06,0,0,0-2.14-.49,3.16,3.16,0,0,0-3.38-2.31,1.36,1.36,0,0,1-.63,0,1.26,1.26,0,0,1-.53-.5,4.74,4.74,0,0,0-6.2-1.1,3.67,3.67,0,0,0-2.68-1.79,2.39,2.39,0,0,0-2.53,1.72,4.82,4.82,0,0,0-2.64-.12A2.16,2.16,0,0,0,39,23.06a6.1,6.1,0,0,0-.89.18,3,3,0,0,0-2.07,3,5.21,5.21,0,0,0-3.3,2.2,2.78,2.78,0,0,0-1-.18,3.6,3.6,0,0,0-1.48,3.18,3.12,3.12,0,0,0-1.63.56,6.22,6.22,0,0,0-1.32,1.43L24.75,37c-.13.17-.26.39-.16.58a.53.53,0,0,0,.49.21,3.42,3.42,0,0,0,3-1.64,1.4,1.4,0,0,0,1.72,1.12,1.9,1.9,0,0,0,1.32-1.74,4.21,4.21,0,0,0,2.25,1.17,2.18,2.18,0,0,0,2.19-1,3.85,3.85,0,0,0,3.76,1.09,3.21,3.21,0,0,0,4,1.18,3.31,3.31,0,0,0,2.46,2.17,5.87,5.87,0,0,0,3.37-.34,4.46,4.46,0,0,0,5,2.18,3.24,3.24,0,0,0,5.12,2.42,4.52,4.52,0,0,0,3.22,3.32,3.27,3.27,0,0,0,3.81-2.19,1.43,1.43,0,0,0,2.11,0A2.33,2.33,0,0,0,68.87,43.26ZM37.52,28.06a1.27,1.27,0,0,1,.07-1.37c.42-.5,1.21-.47,1.74-.84s.75-1.2,1.16-1.8a2.48,2.48,0,0,1,3.73-.21,3.82,3.82,0,0,1,5.27-.46,5,5,0,0,1,6,1.85,2,2,0,0,1,2.91,1.84,2.31,2.31,0,0,1,3.12,2.86,1.55,1.55,0,0,1,2.1.67,3,3,0,0,1,0,2.4,2.37,2.37,0,0,1,2.76.09c.78.63.82,1.71,1.4,2.47.29.37.75.68.65,1.22-.07.36-.43.8-.84.61a1.37,1.37,0,0,1-.06,2,1.68,1.68,0,0,1-2.09,0,1.22,1.22,0,0,1-1.15,1.31,4,4,0,0,1-3.46-2.57,3,3,0,0,1-3.35-.35,5.37,5.37,0,0,1-1.72-3.08,4.55,4.55,0,0,1-4.61-3,5.72,5.72,0,0,1-3.08,0A3,3,0,0,1,46,29.62a3.09,3.09,0,0,1-2.71,0,1.86,1.86,0,0,0-1-.35,2.19,2.19,0,0,0-.73.32,3.18,3.18,0,0,1-3-.48A2.83,2.83,0,0,1,37.52,28.06Z"/><path class="cls-7" d="M37.59,26.68a1.27,1.27,0,0,0-.07,1.37,2.83,2.83,0,0,0,1,1,3.18,3.18,0,0,0,3,.48,2.19,2.19,0,0,1,.73-.32,1.86,1.86,0,0,1,1,.35,3.09,3.09,0,0,0,2.71,0,3,3,0,0,0,2.1,2.11,5.72,5.72,0,0,0,3.08,0,4.55,4.55,0,0,0,4.61,3,5.37,5.37,0,0,0,1.72,3.08,3,3,0,0,0,3.35.35,4,4,0,0,0,3.46,2.57,1.22,1.22,0,0,0,1.15-1.31,1.68,1.68,0,0,0,2.09,0,1.37,1.37,0,0,0,.06-2c.41.19.78-.25.84-.61.1-.54-.36-.85-.65-1.22-.59-.76-.62-1.84-1.4-2.47A2.37,2.37,0,0,0,63.66,33a3,3,0,0,0,0-2.4,1.55,1.55,0,0,0-2.1-.67,2.31,2.31,0,0,0-3.12-2.86,2,2,0,0,0-2.91-1.84,5,5,0,0,0-6-1.85,3.82,3.82,0,0,0-5.27.46,2.48,2.48,0,0,0-3.73.21c-.41.59-.57,1.39-1.16,1.8S38,26.18,37.59,26.68Z"/><path class="cls-3" d="M65.53,54a7.41,7.41,0,0,1,2.3.06,4.15,4.15,0,0,0,3.56-2.7,7.84,7.84,0,0,0,.54-2.14,3.48,3.48,0,0,1-1.76.92,2.41,2.41,0,0,1-3.71,1.23,2.3,2.3,0,0,1-3,.86c-.34-.19-.63-.47-1-.63a4.9,4.9,0,0,0-1.76-.21,10.36,10.36,0,0,1-3.86-1.27l-2.89-1.4a6.27,6.27,0,0,1-1.59-1c-.41-.38-.76-.9-1.31-1a4.93,4.93,0,0,0-1,0c-1.42,0-2.21-1.58-3.25-2.54a8.6,8.6,0,0,0-2.53-1.44l-3.91-1.67a9.44,9.44,0,0,0-3.41-1,17.73,17.73,0,0,0-2.62.32c-1.56.2-3.19,0-4.66.58-1,.37-1.9,1-2.92.92a3.88,3.88,0,0,0-1.11-.13c-.49.08-.83.51-1.2.83a3.47,3.47,0,0,1-3.21.68c-.57-.17-1.15-.59-1.16-1.18a0,0,0,0,0,0,0,1.76,1.76,0,0,0,.22,2.15,2.23,2.23,0,0,0,.41.4,2,2,0,0,0,.72.35,3.08,3.08,0,0,0,1.69-.09,1.12,1.12,0,0,0,.64.5,1.19,1.19,0,0,0,1.24-.5,1.6,1.6,0,0,0,.21-1.24l.09-.07a3.29,3.29,0,0,0,1.71.31c.32,0,.73-.37.49-.59a1.79,1.79,0,0,0,2.65-.9l.12,0A1.48,1.48,0,0,0,33,41.6a1.88,1.88,0,0,0,2.14-.07,1.44,1.44,0,0,0,2-.41,2.61,2.61,0,0,0,2.62,1.2,2,2,0,0,0,1,1.47,1,1,0,0,0,1.44-.67c.16.63.42,1.36,1.05,1.5a1.68,1.68,0,0,0,1.35-.51,5.41,5.41,0,0,0,4.1,3.37c0,1.18,1.06,2.06,2.11,2.58s2.26,1,2.83,2c.34.61.42,1.39,1,1.83,1.28,1.06,3-.9,4.67-.88s3.1,2.21,4.76,1.71C64.59,54.55,65,54.13,65.53,54Z"/><path class="cls-7" d="M56,40.46a10,10,0,0,0,2.52.45,3.39,3.39,0,0,1-4.84-1.5A10,10,0,0,0,56,40.46Z"/><path class="cls-7" d="M46.84,33.75a10,10,0,0,0,2.52.45,3.39,3.39,0,0,1-4.84-1.5A10,10,0,0,0,46.84,33.75Z"/><path class="cls-3" d="M55.56,46.72a10,10,0,0,0,2.52.45,3.39,3.39,0,0,1-4.84-1.5A10,10,0,0,0,55.56,46.72Z"/><path class="cls-3" d="M43.38,40.67a7,7,0,0,0,1.75.31,2.36,2.36,0,0,1-3.38-1A7,7,0,0,0,43.38,40.67Z"/><path class="cls-3" d="M66.38,49.52A7,7,0,0,0,68,48.76a2.36,2.36,0,0,1-3.36,1.1A7,7,0,0,0,66.38,49.52Z"/><path class="cls-3" d="M35.32,38.07a7,7,0,0,0,1.76.26,2.36,2.36,0,0,1-3.41-.95A7,7,0,0,0,35.32,38.07Z"/><path class="cls-3" d="M28.71,38.76a7,7,0,0,0,1.76.26,2.36,2.36,0,0,1-3.41-.95A7,7,0,0,0,28.71,38.76Z"/><path class="cls-6" d="M64.5,37a7,7,0,0,0,1.61-.76,2.36,2.36,0,0,1-3.36,1.1A7,7,0,0,0,64.5,37Z"/><path class="cls-6" d="M50.24,29.3a7,7,0,0,0,1.72.48,2.36,2.36,0,0,1-3.26-1.37A7,7,0,0,0,50.24,29.3Z"/><path class="cls-6" d="M57.94,32.44a7,7,0,0,0,1.65.68,2.36,2.36,0,0,1-3.08-1.74A7,7,0,0,0,57.94,32.44Z"/><path class="cls-6" d="M42.65,26.92a7,7,0,0,0,1.65.68,2.36,2.36,0,0,1-3.08-1.74A7,7,0,0,0,42.65,26.92Z"/><path class="cls-8" d="M52.45,24.5a7,7,0,0,1,1.55.88A2.37,2.37,0,0,0,50.73,24,7,7,0,0,1,52.45,24.5Z"/><path class="cls-8" d="M58.06,28.14a7,7,0,0,1,1.55.88,2.37,2.37,0,0,0-3.27-1.36A7,7,0,0,1,58.06,28.14Z"/><path class="cls-8" d="M63.77,33.09a7,7,0,0,1,1.55.88,2.37,2.37,0,0,0-3.27-1.36A7,7,0,0,1,63.77,33.09Z"/><path class="cls-6" d="M59.5,35.46a7,7,0,0,0,1.65.68,2.36,2.36,0,0,1-3.08-1.74A7,7,0,0,0,59.5,35.46Z"/><path class="cls-3" d="M50,43.2a9.14,9.14,0,0,0,1.74.36,2.9,2.9,0,0,1-3.38-1A9.15,9.15,0,0,0,50,43.2Z"/><path class="cls-3" d="M23.09,40.59a4.49,4.49,0,0,0,1,.89,1.61,1.61,0,0,1-1.73-2A4.49,4.49,0,0,0,23.09,40.59Z"/><path class="cls-7" d="M41.88,35.35a5.76,5.76,0,0,0,1.65.26,2,2,0,0,1-3.16-1A5.76,5.76,0,0,0,41.88,35.35Z"/><path class="cls-7" d="M59.59,42.74a5.76,5.76,0,0,0,1.65.26,2,2,0,0,1-3.16-1A5.76,5.76,0,0,0,59.59,42.74Z"/><path class="cls-7" d="M47.19,37.93a5.76,5.76,0,0,0,1.65.26,2,2,0,0,1-3.16-1A5.76,5.76,0,0,0,47.19,37.93Z"/><path class="cls-7" d="M36.15,30.61a5.76,5.76,0,0,0,1.65.26,2,2,0,0,1-3.16-1A5.76,5.76,0,0,0,36.15,30.61Z"/><path class="cls-7" d="M41.48,31.3a5.76,5.76,0,0,0,1.65.26,2,2,0,0,1-3.16-1A5.76,5.76,0,0,0,41.48,31.3Z"/><path class="cls-7" d="M35.12,33.63a5.76,5.76,0,0,0,1.65.26,2,2,0,0,1-3.16-1A5.76,5.76,0,0,0,35.12,33.63Z"/><path class="cls-7" d="M50.71,37.61a17,17,0,0,0,2.48.57,5.21,5.21,0,0,1-4.84-1.5A17,17,0,0,0,50.71,37.61Z"/><path class="cls-7" d="M64.92,43.51a10,10,0,0,0,2.46-.67,3.39,3.39,0,0,1-5,.72A10,10,0,0,0,64.92,43.51Z"/></svg>