<svg id="POST_5" data-name="POST 5" xmlns="http://www.w3.org/2000/svg" viewBox="0 0 80.97 80.97"><defs><style>.cls-1{fill:#a02222;}.cls-2{fill:#ffb8b6;}.cls-3{fill:#ff8b85;}.cls-4{fill:#bf3434;}.cls-5{fill:#8e1b1b;}.cls-6{fill:#d64741;}.cls-7{fill:#e3dbd8;}.cls-8{fill:#f2eeed;}</style></defs><title>iconos</title><g id="_Grupo_" data-name="&lt;Grupo&gt;"><path class="cls-1" d="M64.94,32.72l.22.95A7.57,7.57,0,0,0,64,32.34l.14,0A6.88,6.88,0,0,1,64.94,32.72Z"/><path class="cls-2" d="M53.39,29.93c-.16.24-.63.36-1.25.4l.25-.78Q52.9,29.72,53.39,29.93Z"/><path class="cls-2" d="M46.7,28.43a33.58,33.58,0,0,1,3.8.6c-.34.38-.67.79-1,1.23-.83-.07-1.57-.15-1.93-.15l-1.66,0Q46.3,29.25,46.7,28.43Z"/><path class="cls-2" d="M45,28.27h.09c-.5.57-1,1.17-1.46,1.77L41,30c-.87,0-1.76,0-2.63,0,.26-.69.46-1.31.69-2A40.59,40.59,0,0,1,45,28.27Z"/><path class="cls-2" d="M36.56,28.41l.7-.13Q36,29.52,34.95,30.87a14.77,14.77,0,0,1-1.66.5,2,2,0,0,1,.84-2.22A5.25,5.25,0,0,1,36.56,28.41Z"/><path class="cls-2" d="M28.27,29.53a3.79,3.79,0,0,1,1.44,0q-1.27,1.31-2.44,2.73a1.28,1.28,0,0,1-1.07-.85C26,30.64,27,29.81,28.27,29.53Z"/><path class="cls-3" d="M52.39,29.55l-.25.78a19.06,19.06,0,0,1-2.63-.07c.32-.44.65-.85,1-1.23A18.22,18.22,0,0,1,52.39,29.55Z"/><path class="cls-3" d="M46.7,28.43q-.4.82-.78,1.65l-2.28,0c.47-.6,1-1.2,1.46-1.77Z"/><path class="cls-3" d="M29.7,29.49c.65.12,1.12.43,1.21.87.16.74-.77,1.56-2.08,1.84a3.68,3.68,0,0,1-1.57,0Q28.43,30.81,29.7,29.49Z"/><path class="cls-3" d="M39.11,28.08c-.23.65-.43,1.28-.69,2a10.79,10.79,0,0,0-1.58.24c-.64.15-1.26.38-1.89.59q1.1-1.35,2.31-2.59A18,18,0,0,1,39.11,28.08Z"/><path class="cls-4" d="M66.18,38.16l1,4.54c-.34-1.34-.78-2.74-1.29-4.13A1.72,1.72,0,0,0,66.18,38.16Z"/><path class="cls-4" d="M60.38,39.44c.5,0,1,.08,1.51.08q-.32,1.85-.74,3.7l-.8-.08Q60.39,41.27,60.38,39.44Z"/><path class="cls-4" d="M55.84,38.73l.76.14q-.5,1.54-1,3.1Q55.73,40.35,55.84,38.73Z"/><path class="cls-4" d="M51.11,38.07c-.8,1.4-1.83,3.07-1.88,3.14q.33-1.62.73-3.22Z"/><path class="cls-4" d="M44.65,37.94c-.3.42-.6.82-.91,1.21-.53.66-1.64,2.28-1.64,2.28Q42.5,39.7,43,38Z"/><path class="cls-4" d="M15.17,41.12a10.72,10.72,0,0,0-1.24,2.44l-.42.08a12.06,12.06,0,0,1,.3-2.61A5.65,5.65,0,0,0,15.17,41.12Z"/><path class="cls-4" d="M20.15,40.29c.67-.16,1.34-.33,2-.48q-.83,1.54-1.53,3.13l-.81,0A21.91,21.91,0,0,1,20.15,40.29Z"/><path class="cls-4" d="M28.95,39l1-.07Q29.26,40.4,28.7,42A19.75,19.75,0,0,1,28.95,39Z"/><path class="cls-4" d="M37.53,38.34h.09c-1,1.41-1.92,2.85-2.81,4.31l-1.44,0a31.17,31.17,0,0,1,1.22-4.12Z"/><path class="cls-5" d="M68.23,43.91a5.58,5.58,0,0,1-1.8,0q-2.64-.39-5.28-.65.42-1.85.74-3.7a13.76,13.76,0,0,0,2.21-.13,3,3,0,0,0,1.71-.69l.12-.14c.51,1.39.95,2.79,1.29,4.13l-1-4.54a3.38,3.38,0,0,0,0-2.23,7.52,7.52,0,0,0-1.06-2.26l-.22-.95a9.1,9.1,0,0,1,4.64,6.74,10.89,10.89,0,0,1,.15,2.37,2.56,2.56,0,0,1-.4,1.45A1.72,1.72,0,0,1,68.23,43.91Z"/><path class="cls-5" d="M49.23,41.22c0-.08,1.08-1.75,1.88-3.14.88.07,1.76.17,2.64.3.7.1,1.39.23,2.09.35q-.11,1.62-.2,3.24.46-1.55,1-3.1c1.26.23,2.52.45,3.78.57q0,1.83,0,3.71a229.6,229.6,0,0,0-25.54-.5c.89-1.47,1.83-2.9,2.81-4.31,1.79-.13,3.58-.25,5.38-.33q-.5,1.7-.89,3.43s1.11-1.62,1.64-2.28c.31-.39.62-.79.91-1.21,1.77-.05,3.54,0,5.3.06Q49.56,39.6,49.23,41.22Z"/><path class="cls-5" d="M34.59,38.55a31.17,31.17,0,0,0-1.22,4.12H33l-10.41.21-1.92,0q.7-1.59,1.53-3.13l1.21-.25A51,51,0,0,1,28.79,39h.16a19.75,19.75,0,0,0-.25,3q.56-1.57,1.26-3.09Z"/><path class="cls-5" d="M20.15,40.29A21.91,21.91,0,0,0,19.82,43a38.49,38.49,0,0,0-5.89.6,10.72,10.72,0,0,1,1.24-2.44h.11A26,26,0,0,0,20.15,40.29Z"/><path class="cls-5" d="M13.17,40.83a3,3,0,0,0,.64.2,12.06,12.06,0,0,0-.3,2.61l-1,.24c-.85.22-1.87.46-2.52-.13a1.31,1.31,0,0,1-.27-.33c-.44-.79,0-1.94.53-2.77a24.38,24.38,0,0,1,2.33-3,2.39,2.39,0,0,0-.66,1.61A2,2,0,0,0,13.17,40.83Z"/><path class="cls-6" d="M65.16,33.67l1,4.49a1.72,1.72,0,0,1-.25.4,39.38,39.38,0,0,0-3.11-6.63l1.16.4A7.57,7.57,0,0,1,65.16,33.67Z"/><path class="cls-6" d="M62.63,31.87a48.28,48.28,0,0,1-.75,7.65c-.5,0-1,0-1.51-.08a72.4,72.4,0,0,0-.57-8.59Z"/><path class="cls-6" d="M56.58,29.66l2.94,1.08q-1.59,4-2.92,8.13l-.76-.14Q56.14,34.19,56.58,29.66Z"/><path class="cls-6" d="M56.05,29.47a34.26,34.26,0,0,0-4.12,7,17.43,17.43,0,0,1-.83,1.57L50,38c.64-2.58,1.39-5.13,2.18-7.66.61,0,1.09-.16,1.25-.4q-.49-.21-1-.38l.38-1.2C53.86,28.7,55,29.08,56.05,29.47Z"/><path class="cls-6" d="M49.51,30.26c-1.7,2.3-3.13,5.22-4.86,7.68L43,38a60.05,60.05,0,0,1,2.93-7.92l1.66,0C47.94,30.11,48.68,30.19,49.51,30.26Z"/><path class="cls-6" d="M50.25,27.61l1.32.37a10.69,10.69,0,0,0-1.07,1,33.58,33.58,0,0,0-3.8-.6c.23-.47.46-.93.7-1.39A24.08,24.08,0,0,1,50.25,27.61Z"/><path class="cls-6" d="M41.14,26.74a43,43,0,0,1,5.24.18c-.44.43-.86.89-1.27,1.36H45a40.59,40.59,0,0,0-5.9-.19c.15-.42.31-.84.52-1.3Z"/><path class="cls-6" d="M41,30l2.6,0c-.65.84-1.29,1.7-1.91,2.55-1.39,1.9-2.79,3.8-4.12,5.74h-.09l-2.94.21a58.86,58.86,0,0,1,3-6.65A18.13,18.13,0,0,0,38.42,30C39.29,30,40.17,30,41,30Z"/><path class="cls-6" d="M38.77,26.82q-.77.7-1.51,1.46l-.7.13a5.25,5.25,0,0,0-2.43.74,2,2,0,0,0-.84,2.22,14.77,14.77,0,0,0,1.66-.5,37.75,37.75,0,0,0-5,8l-1,.07a37.16,37.16,0,0,1,4.4-11.6C35.14,27.09,37,26.92,38.77,26.82Z"/><path class="cls-6" d="M25.52,29.25a41.72,41.72,0,0,1,6.06-1.6q-1,.89-1.88,1.84a3.79,3.79,0,0,0-1.44,0c-1.3.28-2.23,1.1-2.08,1.84a1.28,1.28,0,0,0,1.07.85,46.5,46.5,0,0,0-5.1,7.59c-.67.15-1.34.31-2,.48A23.23,23.23,0,0,1,25.52,29.25Z"/><path class="cls-6" d="M23.87,29.87l.75-.3a79.51,79.51,0,0,0-8.17,9.75c-.44.58-.88,1.18-1.28,1.8A5.65,5.65,0,0,1,13.81,41a16.24,16.24,0,0,1,1.49-4A28.48,28.48,0,0,1,17.95,33,32.61,32.61,0,0,1,23.87,29.87Z"/><path class="cls-1" d="M66.22,35.93a3.38,3.38,0,0,1,0,2.23l-1-4.49A7.52,7.52,0,0,1,66.22,35.93Z"/><path class="cls-1" d="M65.93,38.56l-.12.14a3,3,0,0,1-1.71.69,13.76,13.76,0,0,1-2.21.13,48.28,48.28,0,0,0,.75-7.65l.19.07A39.38,39.38,0,0,1,65.93,38.56Z"/><path class="cls-1" d="M59.52,30.74l.28.11a72.4,72.4,0,0,1,.57,8.59c-1.26-.12-2.52-.34-3.78-.57Q57.93,34.76,59.52,30.74Z"/><path class="cls-1" d="M56.05,29.47l.53.19q-.44,4.53-.75,9.07c-.7-.13-1.39-.25-2.09-.35-.88-.13-1.76-.23-2.64-.3a17.43,17.43,0,0,0,.83-1.57A34.26,34.26,0,0,1,56.05,29.47Z"/><path class="cls-1" d="M43.65,30l2.28,0A60.05,60.05,0,0,0,43,38c-1.79.08-3.59.21-5.38.33,1.34-1.94,2.73-3.84,4.12-5.74C42.37,31.74,43,30.88,43.65,30Z"/><path class="cls-1" d="M52.14,30.33C51.35,32.87,50.59,35.42,50,38c-1.76-.1-3.53-.11-5.3-.06,1.73-2.46,3.16-5.38,4.86-7.68A19.06,19.06,0,0,0,52.14,30.33Z"/><path class="cls-1" d="M52.76,28.35l-.38,1.2A18.22,18.22,0,0,0,50.51,29a10.69,10.69,0,0,1,1.07-1Z"/><path class="cls-1" d="M47.4,27c-.24.46-.47.92-.7,1.39l-1.59-.16c.41-.47.83-.92,1.27-1.36Z"/><path class="cls-1" d="M38.77,26.82l.87,0c-.21.46-.37.88-.52,1.3a18,18,0,0,0-1.85.2Q38,27.53,38.77,26.82Z"/><path class="cls-1" d="M38.42,30a18.13,18.13,0,0,1-.83,1.86,58.86,58.86,0,0,0-3,6.65L30,38.89a37.75,37.75,0,0,1,5-8c.62-.22,1.25-.44,1.89-.59A10.79,10.79,0,0,1,38.42,30Z"/><path class="cls-1" d="M31.58,27.66c.58-.11,1.17-.21,1.77-.3A37.16,37.16,0,0,0,28.95,39h-.16a51,51,0,0,0-5.42.59l-1.21.25a46.5,46.5,0,0,1,5.1-7.59,3.68,3.68,0,0,0,1.57,0c1.3-.28,2.23-1.1,2.08-1.84-.09-.45-.56-.76-1.21-.87Q30.61,28.55,31.58,27.66Z"/><path class="cls-1" d="M24.63,29.58l.89-.32a23.23,23.23,0,0,0-5.37,11,26,26,0,0,1-4.87.83h-.11c.4-.62.84-1.22,1.28-1.8A79.51,79.51,0,0,1,24.63,29.58Z"/><path class="cls-1" d="M17.95,33A28.48,28.48,0,0,0,15.3,37a16.24,16.24,0,0,0-1.49,4,3,3,0,0,1-.64-.2,2,2,0,0,1-1.25-1.62,2.39,2.39,0,0,1,.66-1.61h0A28,28,0,0,1,17.95,33Z"/><path class="cls-7" d="M69.58,39.46c.68.6,2.21,1.87,1.78,2.67a4.77,4.77,0,0,0-.55,1.65c-.08.49.45,1.34.4,1.87s-1.31,1.08-1.39,1.67a4.76,4.76,0,0,1-.66,2.36c-.29.33-1.48.5-1.68.9s-.24,1.07-.59,1.47c-.76.86-2.32,0-3.27.69-.38.26-.59.71-1,1-1.23.9-3.09-.73-4.41,0a5,5,0,0,0-.81.7c-.75.67-2.27-.35-3.72,1-.57.54-1-1.06-1.72-.9s-1.31,1-2,1.1-1.39-.29-2.1-.22-1.32.6-2,.59c-.33,0-.46-.36-.77-.48s-.72.32-.86.51a1.54,1.54,0,0,1-1.52.4c-.71-.19-1.32-.67-2-.8a2.23,2.23,0,0,0-2.08.83.58.58,0,0,1-.89,0c-.8-.87-1.85-1.59-2.86-1.11a7.11,7.11,0,0,1-.91.5c-1.08.33-1.83-1-2.84-1.59a.6.6,0,0,0-.68.08,1.59,1.59,0,0,1-1.75.2,9.73,9.73,0,0,0-.85-.56c-1.47-.61-3.25,1.92-4.4.82-.24-.23-.4-.6-.73-.65s-.56.25-.86.35c-.7.24-1.29-.56-2-.88a5.38,5.38,0,0,0-2.48-.08,2,2,0,0,1-1.67-.77.6.6,0,0,0-.64-.29l-.12,0a.58.58,0,0,1-.65-.11A5.93,5.93,0,0,1,13.22,51a.58.58,0,0,0-.58-.31c-.43,0-1-.44-1.17-.93s-.44-1.13-.87-1.35a.58.58,0,0,1-.34-.57l.05-.64a.58.58,0,0,0-.33-.57A2,2,0,0,1,9.13,44h0c.43.21.68.85.87,1.35s.73,1,1.17.93a.58.58,0,0,1,.58.31,5.94,5.94,0,0,0,1.09,1.46.58.58,0,0,0,.65.11l.12,0a.59.59,0,0,1,.64.29,2,2,0,0,0,1.67.77,5.4,5.4,0,0,1,2.49.08c.67.32,1.26,1.13,2,.88.3-.1.54-.39.86-.35s.49.41.73.65c1.15,1.09,2.93-1.43,4.4-.82a9.09,9.09,0,0,1,.85.56A1.59,1.59,0,0,0,29,50a.6.6,0,0,1,.68-.08c1,.56,1.76,1.92,2.84,1.59a7.27,7.27,0,0,0,.91-.5c1-.47,2.05.24,2.85,1.11a.58.58,0,0,0,.89,0,2.23,2.23,0,0,1,2.08-.83c.72.13,1.33.62,2,.8a1.55,1.55,0,0,0,1.52-.4c.15-.19.64-.59.86-.51s.44.47.77.48c.68,0,1.35-.53,2-.59s1.41.34,2.1.22,1.31-1,2-1.1,1.15,1.44,1.72.9c1.45-1.36,3-.35,3.72-1a4.86,4.86,0,0,1,.81-.7c1.32-.75,3.18.88,4.41,0,.37-.27.58-.72,1-1,.95-.64,2.51.17,3.27-.69.35-.4.35-1,.59-1.47s1.39-.57,1.68-.9a2.8,2.8,0,0,0,.51-1.37,1.72,1.72,0,0,0,1.11-.63,2.56,2.56,0,0,0,.4-1.45A10.89,10.89,0,0,0,69.58,39.46Z"/><path class="cls-8" d="M66.43,43.87q-2.64-.39-5.28-.65l-.8-.08a229.6,229.6,0,0,0-25.54-.5l-1.44,0H33l-10.41.21-1.92,0-.81,0a38.49,38.49,0,0,0-5.89.6l-.42.08-1,.24c-.85.22-1.87.46-2.52-.13a1.31,1.31,0,0,1-.27-.33l-.05,0a1.42,1.42,0,0,0-.54.59h0c.43.21.68.85.87,1.35s.73,1,1.17.93a.58.58,0,0,1,.58.31,5.94,5.94,0,0,0,1.09,1.46.58.58,0,0,0,.65.11l.12,0a.59.59,0,0,1,.64.29,2,2,0,0,0,1.67.77,5.4,5.4,0,0,1,2.49.08c.67.32,1.26,1.13,2,.88.3-.1.54-.39.86-.35s.49.41.73.65c1.15,1.09,2.93-1.43,4.4-.82a9.1,9.1,0,0,1,.85.56A1.59,1.59,0,0,0,29,50a.6.6,0,0,1,.68-.08c1,.56,1.76,1.92,2.84,1.59a7.27,7.27,0,0,0,.91-.5c1-.47,2.05.24,2.85,1.11a.58.58,0,0,0,.89,0,2.23,2.23,0,0,1,2.08-.83c.72.13,1.33.62,2,.8a1.55,1.55,0,0,0,1.52-.4c.15-.19.64-.59.86-.51s.44.47.77.48c.68,0,1.35-.53,2-.59s1.41.34,2.1.22,1.31-1,2-1.1,1.15,1.44,1.72.9c1.45-1.36,3-.35,3.72-1a4.86,4.86,0,0,1,.81-.7c1.32-.75,3.18.88,4.41,0,.37-.27.58-.72,1-1,.95-.64,2.51.17,3.27-.69.35-.4.35-1,.59-1.47s1.39-.57,1.68-.9a2.8,2.8,0,0,0,.51-1.37A5.58,5.58,0,0,1,66.43,43.87Z"/></g><ellipse class="cls-7" cx="50.87" cy="48.7" rx="0.27" ry="1.24" transform="translate(-18.48 60.95) rotate(-53.77)"/><ellipse class="cls-7" cx="60.66" cy="44.62" rx="0.27" ry="1.24" transform="translate(-11.19 67.17) rotate(-53.76)"/><ellipse class="cls-7" cx="45.07" cy="44.67" rx="1.24" ry="0.27" transform="translate(-17.81 36.12) rotate(-37)"/><ellipse class="cls-7" cx="36.84" cy="46.81" rx="1.24" ry="0.27" transform="translate(-20.75 31.6) rotate(-37)"/><ellipse class="cls-7" cx="29.33" cy="46.25" rx="1.24" ry="0.27" transform="translate(-21.93 26.96) rotate(-37)"/><ellipse class="cls-7" cx="23.34" cy="47.91" rx="1.24" ry="0.27" transform="translate(-24.14 23.7) rotate(-37.01)"/><ellipse class="cls-7" cx="17.15" cy="44.98" rx="1.24" ry="0.27" transform="translate(-23.62 19.38) rotate(-37.01)"/><ellipse class="cls-7" cx="52.03" cy="45.82" rx="1.24" ry="0.27" transform="translate(-17.1 40.55) rotate(-37)"/><ellipse class="cls-7" cx="64.8" cy="45.73" rx="1.24" ry="0.27" transform="translate(-14.47 48.22) rotate(-37.01)"/><ellipse class="cls-7" cx="58.28" cy="47.49" rx="1.24" ry="0.27" transform="translate(-0.81 1.01) rotate(-0.98)"/><ellipse class="cls-7" cx="51.01" cy="44" rx="1.24" ry="0.27" transform="translate(-0.75 0.88) rotate(-0.98)"/><ellipse class="cls-7" cx="46.02" cy="49.14" rx="1.24" ry="0.27" transform="translate(-0.84 0.8) rotate(-0.98)"/><ellipse class="cls-7" cx="43.03" cy="46.83" rx="1.24" ry="0.27" transform="translate(-0.8 0.75) rotate(-0.98)"/><ellipse class="cls-7" cx="39.17" cy="43.87" rx="1.24" ry="0.27" transform="translate(-0.75 0.68) rotate(-0.98)"/><ellipse class="cls-7" cx="36.56" cy="49.75" rx="1.24" ry="0.27" transform="translate(-0.85 0.64) rotate(-0.98)"/><ellipse class="cls-7" cx="31.71" cy="47.12" rx="1.24" ry="0.27" transform="translate(-0.8 0.55) rotate(-0.98)"/><ellipse class="cls-7" cx="28.83" cy="43.92" rx="1.24" ry="0.27" transform="translate(-0.75 0.5) rotate(-0.98)"/><ellipse class="cls-7" cx="25.31" cy="45.94" rx="1.24" ry="0.27" transform="translate(-0.79 0.44) rotate(-0.98)"/><ellipse class="cls-7" cx="19.28" cy="46.31" rx="1.24" ry="0.27" transform="translate(-0.79 0.34) rotate(-0.98)"/><ellipse class="cls-7" cx="15.46" cy="47.63" rx="1.24" ry="0.27" transform="translate(-0.82 0.27) rotate(-0.98)"/><ellipse class="cls-7" cx="14.68" cy="44.72" rx="1.24" ry="0.27" transform="translate(-0.77 0.26) rotate(-0.99)"/><ellipse class="cls-7" cx="48.87" cy="45.95" rx="0.27" ry="1.24" transform="translate(-10.28 77.59) rotate(-71.37)"/><ellipse class="cls-7" cx="54.43" cy="48.31" rx="1.24" ry="0.27" transform="translate(-15.36 27.69) rotate(-25.13)"/><ellipse class="cls-7" cx="42.39" cy="43.86" rx="0.27" ry="1.24" transform="translate(-12.7 70.03) rotate(-71.38)"/><ellipse class="cls-7" cx="39.63" cy="46.05" rx="0.27" ry="1.24" transform="translate(-16.67 68.9) rotate(-71.38)"/><ellipse class="cls-7" cx="34.54" cy="46.12" rx="0.27" ry="1.24" transform="translate(-20.19 64.13) rotate(-71.38)"/><ellipse class="cls-7" cx="27.15" cy="48.71" rx="0.27" ry="1.24" transform="translate(-27.68 58.88) rotate(-71.37)"/><ellipse class="cls-7" cx="25.02" cy="43.89" rx="0.27" ry="1.24" transform="translate(-24.56 53.59) rotate(-71.38)"/><ellipse class="cls-7" cx="19.93" cy="44.98" rx="0.27" ry="1.24" transform="translate(-29.06 49.5) rotate(-71.38)"/><ellipse class="cls-7" cx="57.91" cy="44.25" rx="0.27" ry="1.24" transform="translate(-2.52 84.99) rotate(-71.38)"/><ellipse class="cls-7" cx="55.89" cy="46" rx="1.24" ry="0.27" transform="translate(-11.22 18.87) rotate(-17.45)"/><ellipse class="cls-7" cx="54.52" cy="43.57" rx="0.27" ry="1.24" transform="translate(-4.18 81.33) rotate(-71.38)"/><ellipse class="cls-7" cx="61.7" cy="47.13" rx="1.24" ry="0.27" transform="translate(-15.3 57.1) rotate(-44.76)"/><ellipse class="cls-7" cx="33.61" cy="43.76" rx="0.27" ry="1.24" transform="translate(-21.56 45) rotate(-53.76)"/><ellipse class="cls-7" cx="39.9" cy="49.04" rx="0.27" ry="1.24" transform="translate(-23.24 52.23) rotate(-53.76)"/><ellipse class="cls-7" cx="12.68" cy="45.39" rx="0.27" ry="1.24" transform="translate(-31.42 28.79) rotate(-53.77)"/><ellipse class="cls-7" cx="22.3" cy="44.37" rx="0.27" ry="1.24" transform="matrix(0.59, -0.81, 0.81, 0.59, -26.67, 36.13)"/><ellipse class="cls-7" cx="19.66" cy="48.1" rx="0.27" ry="1.24" transform="translate(-30.76 35.53) rotate(-53.77)"/><ellipse class="cls-7" cx="31.23" cy="48.96" rx="0.27" ry="1.24" transform="translate(-26.72 45.21) rotate(-53.77)"/></svg>