<svg xmlns="http://www.w3.org/2000/svg" viewBox="0 0 80.97 80.97"><defs><style>.cls-1{fill:#fff;}.cls-2{fill:#282723;}.cls-3{fill:#e3dbd8;}.cls-4{fill:#3a3934;}.cls-5{fill:#c9c91c;}.cls-6{fill:#d9e021;}.cls-7{fill:#359e3f;}.cls-8{fill:#45af4c;}.cls-9{fill:#ffc578;}.cls-10{fill:#ffb140;}.cls-11{fill:#ffa33e;}.cls-12{fill:#ee801e;}.cls-13{fill:#c43c00;}.cls-14{fill:#ffa25c;}.cls-15{fill:#e75b10;}</style></defs><title>iconos</title><g id="POST_2" data-name="POST 2"><path class="cls-1" d="M68.18,18.56C68.22,25.09,56,30.65,41,31S13.65,26.28,13.6,19.75,25.74,7.67,40.81,7.34,68.14,12,68.18,18.56ZM18.94,18c1.34-1.6,2.16-3.16,1.83-3.46s-1.7.75-3,2.36S15.56,20,15.89,20.33,17.59,19.58,18.94,18ZM23,25c.12-.45-1.37-1.26-3.33-1.8s-3.64-.62-3.76-.17,1.37,1.26,3.32,1.81S22.9,25.5,23,25Zm1.52-6.83c2,0,3.68-.46,3.68-.92s-1.65-.81-3.69-.76-3.68.46-3.67.92S22.51,18.26,24.54,18.22Zm2.36-5.15c1.91-.77,3.32-1.75,3.16-2.18s-1.83-.16-3.73.61S23,13.24,23.17,13.68,25,13.84,26.9,13.07ZM28.47,26.9c2,0,3.68-.46,3.68-.92s-1.65-.81-3.69-.76-3.68.46-3.67.92S26.44,26.94,28.47,26.9Zm6-4.21c.2-.42-1.13-1.49-3-2.39s-3.47-1.29-3.67-.86,1.12,1.49,3,2.4S34.31,23.11,34.51,22.69Zm0-5.43c1.9-.77,3.32-1.75,3.16-2.18s-1.83-.16-3.73.6-3.32,1.75-3.16,2.18S32.58,18,34.49,17.25Zm5.05-4.48c.2-.42-1.13-1.49-3-2.4s-3.47-1.29-3.67-.86,1.13,1.5,3,2.4S39.34,13.2,39.54,12.78ZM37.68,27.51c1.93-.68,3.39-1.6,3.25-2s-1.82-.25-3.75.44-3.39,1.59-3.25,2S35.74,28.19,37.68,27.51Zm1.78-5.1c1.35-1.6,2.17-3.16,1.83-3.46s-1.7.75-3,2.36-2.17,3.16-1.83,3.46S38.11,24,39.45,22.41ZM44,16.8c1.93-.68,3.38-1.6,3.25-2s-1.82-.25-3.75.44-3.39,1.6-3.25,2S42,17.48,44,16.8Zm-.85-6.41c2,0,3.68-.46,3.68-.92s-1.65-.81-3.69-.76-3.68.46-3.67.92S41.07,10.43,43.1,10.39ZM46,23.05c2,0,3.68-.46,3.68-.92S48,21.32,46,21.36s-3.68.46-3.67.92S44,23.1,46,23.05Zm1.87,5.55c2,0,3.68-.46,3.67-.92s-1.65-.81-3.69-.76-3.68.46-3.67.92S45.85,28.65,47.89,28.6ZM52,13.19c.57-1.59.69-3,.27-3.15s-1.21,1-1.77,2.59-.69,3-.27,3.15S51.45,14.78,52,13.19Zm2.7,5.25c1.94-.68,3.39-1.6,3.25-2s-1.82-.25-3.75.44-3.39,1.6-3.25,2S52.78,19.12,54.71,18.44Zm10.51-1.75c.2-.42-1.13-1.49-3-2.4S58.79,13,58.6,13.43s1.13,1.5,3,2.4S65,17.12,65.22,16.69Zm-2.51,5.49c2-.11,3.67-.57,3.65-1s-1.68-.76-3.71-.65-3.67.57-3.65,1S60.68,22.29,62.71,22.18Z"/><path class="cls-2" d="M12.6,19.78l.29,44.39c0,5.1,6.51,9.38,15.89,11.29a34.15,34.15,0,0,1-6.4-4.22c-.53-.44-1.11-1.08-.9-1.76L25,68c.43-.18,1-.52.86-1-.06-.29-.33-.46-.59-.59l-3.78-2c-5.9-3.57,17-3.21,13.56-5.91-3.61-3-8.93-2.49-13-4.77,3-1.42,10.5-.31,9.19-3.67,0-1.82-1.82-3-3.43-3.7-3-1.37-14.26-1.47-9.44-3.3l9.11-4.31c.34-.16.73-.38.82-.76s-.29-.87-.65-1.17l-5.35-4.42c-3.1-2.88,7.91,1.56,14.06-.33C22.93,31.34,12.64,26.22,12.6,19.78Z"/><path class="cls-3" d="M17.72,16.87c-1.35,1.6-2.17,3.16-1.83,3.46s1.7-.75,3-2.36,2.16-3.16,1.83-3.46S19.06,15.27,17.72,16.87Z"/><path class="cls-3" d="M15.93,23.07c-.12.45,1.37,1.26,3.32,1.81S22.9,25.5,23,25s-1.37-1.26-3.33-1.8S16.06,22.62,15.93,23.07Z"/><path d="M18.38,43c-4.83,1.83,6.4,1.93,9.44,3.3,1.6.73,3.4,1.88,3.43,3.7,1.31,3.37-6.2,2.26-9.19,3.67,4.07,2.27,9.38,1.77,13,4.77,3.46,2.69-19.47,2.34-13.56,5.91l3.78,2c.25.14.52.31.59.59.1.47-.42.81-.86,1l-3.51,1.46c-.21.68.36,1.32.9,1.76a34.15,34.15,0,0,0,6.4,4.22,56.89,56.89,0,0,0,12.49,1.05c1.53,0,3-.12,4.51-.27a66.15,66.15,0,0,0,13.49-6c1-.56,2.06-1.49,1.77-2.57l-7.69-.4c-.52,0-1.23-.33-1-.82a32.55,32.55,0,0,0,5.9-3.78c.25-.2.53-.46.52-.79s-.49-.66-.9-.79l-8-2.59L60.71,51.8c.37-.23.8-.57.74-1s-.41-.55-.73-.7l-5.9-2.74C54,47,53,46.32,53.19,45.4a2.16,2.16,0,0,1,1-1.22l5-3.79a5.84,5.84,0,0,0,1.59-1.58,2,2,0,0,0,.14-.27,1.9,1.9,0,0,0-.11-1.85c-.48-.64-1.37-.74-2.11-1-2.85-1.16,1.19-2.74.76-4.53-.36-1.54-1.88-1.57-3.19-1.38h0A55.4,55.4,0,0,1,41,32.12c-1.57,0-3.11,0-4.61-.07-6.14,1.89-17.15-2.55-14.06.33l5.35,4.42c.36.3.76.71.65,1.17s-.48.59-.82.76Z"/><path class="cls-4" d="M41,32.12c-1.57,0-3.11,0-4.61-.07-13.44-.71-23.73-5.83-23.77-12.27,0-7.16,12.58-13.24,28.21-13.58s28.34,5.19,28.38,12.35v0c0,2.87-2,5.56-5.47,7.78a31.41,31.41,0,0,1-7.5,3.4h0A55.4,55.4,0,0,1,41,32.12ZM41,31C56,30.65,68.22,25.09,68.18,18.56S55.89,7,40.81,7.34,13.56,13.23,13.6,19.75,25.9,31.3,41,31Z"/><path class="cls-3" d="M24.53,16.53c-2,0-3.68.46-3.67.92s1.65.81,3.69.76,3.68-.46,3.68-.92S26.56,16.48,24.53,16.53Z"/><path class="cls-3" d="M26.33,11.5c-1.91.77-3.32,1.75-3.16,2.18s1.83.16,3.73-.61,3.32-1.75,3.16-2.18S28.24,10.73,26.33,11.5Z"/><path class="cls-3" d="M28.46,25.21c-2,0-3.68.46-3.67.92s1.65.81,3.69.76,3.68-.46,3.68-.92S30.5,25.16,28.46,25.21Z"/><path class="cls-3" d="M27.89,19.43c-.2.42,1.12,1.49,3,2.4s3.47,1.29,3.67.86-1.13-1.49-3-2.39S28.08,19,27.89,19.43Z"/><path class="cls-3" d="M33.91,15.68c-1.91.77-3.32,1.75-3.16,2.18s1.83.16,3.74-.6,3.32-1.75,3.16-2.18S35.82,14.91,33.91,15.68Z"/><path class="cls-3" d="M32.92,9.52c-.2.43,1.13,1.5,3,2.4s3.47,1.29,3.67.86-1.13-1.49-3-2.4S33.12,9.1,32.92,9.52Z"/><path class="cls-3" d="M37.17,25.92c-1.94.68-3.39,1.59-3.25,2s1.82.24,3.75-.44,3.39-1.6,3.25-2S39.11,25.23,37.17,25.92Z"/><path class="cls-3" d="M38.24,21.31c-1.35,1.6-2.17,3.16-1.83,3.46s1.7-.75,3-2.36,2.17-3.16,1.83-3.46S39.58,19.7,38.24,21.31Z"/><path class="cls-3" d="M43.45,15.2c-1.93.68-3.39,1.6-3.25,2S42,17.48,44,16.8s3.38-1.6,3.25-2S45.38,14.51,43.45,15.2Z"/><path class="cls-3" d="M43.09,8.7c-2,0-3.68.46-3.67.92s1.65.81,3.69.76,3.68-.46,3.68-.92S45.12,8.65,43.09,8.7Z"/><path class="cls-3" d="M46,21.36c-2,0-3.68.46-3.67.92s1.65.81,3.69.76,3.68-.46,3.68-.92S48,21.32,46,21.36Z"/><path class="cls-3" d="M47.88,26.91c-2,0-3.68.46-3.67.92s1.65.81,3.69.76,3.68-.46,3.67-.92S49.91,26.87,47.88,26.91Z"/><path class="cls-2" d="M59.27,70.21a66.15,66.15,0,0,1-13.49,6c8.8-.83,16.23-3.5,20.31-7,.12-1.58-4.49-2.66-2-4a7.25,7.25,0,0,0,2.71-2.42c.58-1.08.46-2.66-.59-3.25-.76-.43-3.09-1.83-3-2.7a1.42,1.42,0,0,1,.51-.76c1.57-1.49,1.42-2,3-3.51a1.4,1.4,0,0,0,.48-.71c.1-.6-.58-1-1.15-1.18-2.17-.76-4.61-2.52-2.9-3.81,4-1.46,3.16-3.14,2.43-4.18a6.81,6.81,0,0,0-2.18-1.58,2.32,2.32,0,0,1-1.31-2.2c0-.07,0-.14.05-.21l-1.27-.1a2,2,0,0,1-.14.27,5.84,5.84,0,0,1-1.59,1.58l-5,3.79a2.16,2.16,0,0,0-1,1.22c-.17.92.8,1.56,1.62,1.95l5.9,2.74c.32.15.67.35.73.7s-.36.78-.74,1L49.79,58.48l8,2.59c.41.13.89.36.9.79s-.27.58-.52.79a32.55,32.55,0,0,1-5.9,3.78c-.19.49.52.79,1,.82l7.69.4C61.33,68.73,60.24,69.65,59.27,70.21Z"/><path class="cls-3" d="M50.51,12.63c-.57,1.59-.69,3-.27,3.15s1.21-1,1.77-2.59.69-3,.27-3.15S51.07,11,50.51,12.63Z"/><path class="cls-3" d="M54.21,16.84c-1.94.68-3.39,1.6-3.25,2s1.82.24,3.75-.44,3.39-1.6,3.25-2S56.14,16.16,54.21,16.84Z"/><path class="cls-2" d="M56.22,29.75c1.32-.19,2.84-.16,3.19,1.38.42,1.79-3.61,3.36-.76,4.53.74.3,1.63.4,2.11,1a1.9,1.9,0,0,1,.11,1.85l1.27.1a2.64,2.64,0,0,1,1-1.15c1.43-1.09,4-1.08,4-2.89,0-1.47-5.77-1-3.15-4.1a4.56,4.56,0,0,0,1.28-2.44c.05-.89-.68-1.84-1.51-1.7A31.41,31.41,0,0,1,56.22,29.75Z"/><path class="cls-3" d="M58.6,13.43c-.2.43,1.13,1.5,3,2.4s3.47,1.29,3.67.86-1.13-1.49-3-2.4S58.79,13,58.6,13.43Z"/><path class="cls-3" d="M62.65,20.49c-2,.11-3.67.57-3.65,1s1.68.76,3.71.65,3.67-.57,3.65-1S64.68,20.39,62.65,20.49Z"/><path class="cls-4" d="M62.09,38.85a2.32,2.32,0,0,0,1.31,2.2,6.81,6.81,0,0,1,2.18,1.58c.73,1,1.59,2.72-2.43,4.18-1.71,1.29.73,3.05,2.9,3.81.56.2,1.24.58,1.15,1.18a1.4,1.4,0,0,1-.48.71c-1.57,1.49-1.42,2-3,3.51a1.42,1.42,0,0,0-.51.76c-.12.88,2.21,2.28,3,2.7,1,.59,1.17,2.17.59,3.25a7.25,7.25,0,0,1-2.71,2.42c-2.47,1.37,2.15,2.44,2,4,2.17-1.89,3.4-4,3.39-6.27l-.29-44.36c0,2.87-2,5.56-5.47,7.78.83-.14,1.56.82,1.51,1.7A4.56,4.56,0,0,1,64,30.49c-2.62,3.11,3.16,2.64,3.15,4.1,0,1.81-2.57,1.8-4,2.89a2.64,2.64,0,0,0-1,1.15C62.13,38.71,62.11,38.78,62.09,38.85Z"/><path class="cls-3" d="M55,25.09c-1.83-.9-3.15-2-3-2.39s1.83,0,3.67.86,3.15,2,3,2.39S56.86,26,55,25.09Z"/><g id="_Grupo_" data-name="&lt;Grupo&gt;"><path class="cls-5" d="M29.81,13.14a16.18,16.18,0,0,0-2.12,2.15A11.54,11.54,0,0,0,25,22.07c1.06-.54,2.34-1.18,3.74-1.87l0-.05A13.4,13.4,0,0,1,29.81,13.14Z"/><path class="cls-6" d="M28.79,20.2c7-3.41,17.09-8.12,19.32-9.16-1.91-2-5.33-4.24-8.8-3.27a17.62,17.62,0,0,0-3.5,1.49,33.51,33.51,0,0,0-6,3.88,13.4,13.4,0,0,0-1,7Z"/><path class="cls-7" d="M39.27,5.08v0a9.86,9.86,0,0,0-1,.19,14.82,14.82,0,0,0-3.49,1.49c-3,1.59-6,3.36-8.12,6s-3.35,6.43-2.21,9.66l.66-.34a11.54,11.54,0,0,1,2.65-6.78,16.18,16.18,0,0,1,2.12-2.15C32.54,7.12,39.27,5.08,39.27,5.08Z"/><path class="cls-8" d="M48.56,10.84c.14-.93-3.26-6.52-9.29-5.78v0s-6.73,2-9.45,8.06a33.51,33.51,0,0,1,6-3.88,17.62,17.62,0,0,1,3.5-1.49c3.47-1,6.89,1.3,8.8,3.27Z"/></g><g id="_Grupo_2" data-name="&lt;Grupo&gt;"><path class="cls-9" d="M54.19,13.52C50.14,14.8,46,16.17,42.7,19a38.17,38.17,0,0,1,10.71-2.6,21.25,21.25,0,0,0,5.53-1.08c2.23-1-.35-2.14-1.8-2.31A7.1,7.1,0,0,0,54.19,13.52Z"/><path class="cls-10" d="M40.64,17.48a89.27,89.27,0,0,1,9.84-4.61,15.83,15.83,0,0,1,6.35-1.54,6.81,6.81,0,0,1,5.64,2.85,3.59,3.59,0,0,1,.21.35A4.89,4.89,0,0,1,62,16.16,10.12,10.12,0,0,1,58.45,19a103.08,103.08,0,0,1-10.68,5.08,4.46,4.46,0,0,1-1.87.49,4.49,4.49,0,0,1-2.76-1.66,9.89,9.89,0,0,1-2.26-3A4,4,0,0,1,40.64,17.48Zm12.76-1.07a21.25,21.25,0,0,0,5.53-1.08c2.23-1-.35-2.14-1.8-2.31a7.1,7.1,0,0,0-2.94.5C50.14,14.8,46,16.17,42.7,19A38.17,38.17,0,0,1,53.41,16.41Z"/><path class="cls-11" d="M39.23,18.69c-.76,1.34.27,3,1.26,4.09,1.27,1.44,2.7,2.89,4.54,3.32,2.28.53,4.6-.62,6.7-1.74l8.4-4.48c1.2-.64,2.51-1.42,2.91-2.75a3.55,3.55,0,0,0-.37-2.61A4.89,4.89,0,0,1,62,16.16,10.12,10.12,0,0,1,58.45,19a103.08,103.08,0,0,1-10.68,5.08,4.46,4.46,0,0,1-1.87.49,4.49,4.49,0,0,1-2.76-1.66,9.89,9.89,0,0,1-2.26-3,4,4,0,0,1-.24-2.52l-.1.06A3.37,3.37,0,0,0,39.23,18.69Z"/></g><g id="_Grupo_3" data-name="&lt;Grupo&gt;"><path class="cls-12" d="M33.57,16.64a2.48,2.48,0,0,1,1.73,3,2.44,2.44,0,0,1-2.94,1.85,2.48,2.48,0,0,1-1.74-3A2.44,2.44,0,0,1,33.57,16.64Zm1.5,3a1.76,1.76,0,0,0,0-.2v0a2.22,2.22,0,0,0-1.61-2.5,2.19,2.19,0,0,0-2.58,1.44v0a1.75,1.75,0,0,0-.06.19,2.23,2.23,0,0,0,1.56,2.73A2.2,2.2,0,0,0,35.07,19.61Z"/><path class="cls-13" d="M32.42,21.27a2.2,2.2,0,0,0,2.64-1.66,1.76,1.76,0,0,0,0-.2,2.19,2.19,0,0,1-2.58,1.44,2.22,2.22,0,0,1-1.61-2.5,1.75,1.75,0,0,0-.06.19A2.23,2.23,0,0,0,32.42,21.27Z"/><path class="cls-14" d="M33.13,18.39c1.74-.28,1.26,2.07,1.5,1.11a1.77,1.77,0,0,0-1.24-2.17,1.75,1.75,0,0,0-2.1,1.32C31.06,19.62,32.63,18.47,33.13,18.39Z"/><path class="cls-15" d="M30.93,18.33a2.19,2.19,0,0,1,2.58-1.44,2.22,2.22,0,0,1,1.61,2.5v0a2.19,2.19,0,0,1-2.58,1.44,2.22,2.22,0,0,1-1.61-2.5Zm3.71,1.17a1.77,1.77,0,0,0-1.24-2.17,1.75,1.75,0,0,0-2.1,1.32c-.24,1,1.33-.18,1.84-.27C34.88,18.11,34.4,20.46,34.63,19.5Z"/></g><g id="_Grupo_4" data-name="&lt;Grupo&gt;"><path class="cls-12" d="M29.3,18.27a2.48,2.48,0,0,1,1.73,3,2.44,2.44,0,0,1-2.94,1.85,2.48,2.48,0,0,1-1.74-3A2.45,2.45,0,0,1,29.3,18.27Zm1.5,3a1.76,1.76,0,0,0,0-.2v0a2.22,2.22,0,0,0-1.61-2.5A2.19,2.19,0,0,0,26.66,20v0a1.76,1.76,0,0,0-.06.19,2.23,2.23,0,0,0,1.56,2.73A2.2,2.2,0,0,0,30.8,21.24Z"/><path class="cls-13" d="M28.16,22.91a2.2,2.2,0,0,0,2.64-1.66,1.76,1.76,0,0,0,0-.2,2.19,2.19,0,0,1-2.58,1.44A2.22,2.22,0,0,1,26.65,20a1.76,1.76,0,0,0-.06.19A2.23,2.23,0,0,0,28.16,22.91Z"/><path class="cls-14" d="M28.87,20c1.74-.28,1.26,2.07,1.5,1.11A1.77,1.77,0,0,0,29.13,19,1.75,1.75,0,0,0,27,20.29C26.79,21.25,28.36,20.11,28.87,20Z"/><path class="cls-15" d="M26.66,20a2.19,2.19,0,0,1,2.58-1.44A2.22,2.22,0,0,1,30.85,21v0a2.19,2.19,0,0,1-2.58,1.44A2.22,2.22,0,0,1,26.65,20Zm3.71,1.17A1.77,1.77,0,0,0,29.13,19,1.75,1.75,0,0,0,27,20.29c-.24,1,1.33-.18,1.84-.27C30.61,19.74,30.13,22.1,30.37,21.13Z"/></g><g id="_Grupo_5" data-name="&lt;Grupo&gt;"><path class="cls-12" d="M36.92,19.08a2.48,2.48,0,0,1,1.73,3A2.44,2.44,0,0,1,35.72,24a2.48,2.48,0,0,1-1.74-3A2.45,2.45,0,0,1,36.92,19.08Zm1.5,3a1.76,1.76,0,0,0,0-.2v0a2.22,2.22,0,0,0-1.61-2.5,2.19,2.19,0,0,0-2.58,1.44v0a1.75,1.75,0,0,0-.06.19,2.23,2.23,0,0,0,1.56,2.73A2.2,2.2,0,0,0,38.42,22Z"/><path class="cls-13" d="M35.77,23.71A2.2,2.2,0,0,0,38.42,22a1.76,1.76,0,0,0,0-.2,2.19,2.19,0,0,1-2.58,1.44,2.22,2.22,0,0,1-1.61-2.5,1.75,1.75,0,0,0-.06.19A2.23,2.23,0,0,0,35.77,23.71Z"/><path class="cls-14" d="M36.49,20.83c1.74-.28,1.26,2.07,1.5,1.11a1.77,1.77,0,0,0-1.24-2.17,1.75,1.75,0,0,0-2.1,1.32C34.41,22.05,36,20.91,36.49,20.83Z"/><path class="cls-15" d="M34.28,20.76a2.19,2.19,0,0,1,2.58-1.44,2.22,2.22,0,0,1,1.61,2.5v0a2.19,2.19,0,0,1-2.58,1.44,2.22,2.22,0,0,1-1.61-2.5ZM38,21.94a1.77,1.77,0,0,0-1.24-2.17,1.75,1.75,0,0,0-2.1,1.32c-.24,1,1.33-.18,1.84-.27C38.23,20.54,37.75,22.9,38,21.94Z"/></g><g id="_Grupo_6" data-name="&lt;Grupo&gt;"><path class="cls-12" d="M32.73,20.42a2.48,2.48,0,0,1,1.73,3,2.44,2.44,0,0,1-2.94,1.85,2.48,2.48,0,0,1-1.74-3A2.45,2.45,0,0,1,32.73,20.42Zm1.5,3a1.75,1.75,0,0,0,0-.2v0a2.22,2.22,0,0,0-1.61-2.5,2.19,2.19,0,0,0-2.58,1.44v0a1.75,1.75,0,0,0-.06.19,2.23,2.23,0,0,0,1.56,2.73A2.2,2.2,0,0,0,34.24,23.39Z"/><path class="cls-13" d="M31.59,25.05a2.2,2.2,0,0,0,2.64-1.66,1.75,1.75,0,0,0,0-.2,2.19,2.19,0,0,1-2.58,1.44,2.22,2.22,0,0,1-1.61-2.5,1.75,1.75,0,0,0-.06.19A2.23,2.23,0,0,0,31.59,25.05Z"/><path class="cls-14" d="M32.3,22.17c1.74-.28,1.26,2.07,1.5,1.11a1.77,1.77,0,0,0-1.24-2.16,1.75,1.75,0,0,0-2.1,1.32C30.23,23.4,31.8,22.25,32.3,22.17Z"/><path class="cls-15" d="M30.09,22.1a2.19,2.19,0,0,1,2.58-1.44,2.22,2.22,0,0,1,1.61,2.5v0a2.19,2.19,0,0,1-2.58,1.44,2.22,2.22,0,0,1-1.61-2.5Zm3.71,1.17a1.77,1.77,0,0,0-1.24-2.16,1.75,1.75,0,0,0-2.1,1.32c-.24,1,1.33-.18,1.84-.27C34,21.89,33.57,24.24,33.8,23.28Z"/></g><g id="_Grupo_7" data-name="&lt;Grupo&gt;"><path class="cls-12" d="M28.5,21.26a2.48,2.48,0,0,1,1.73,3,2.44,2.44,0,0,1-2.94,1.85,2.48,2.48,0,0,1-1.74-3A2.45,2.45,0,0,1,28.5,21.26Zm1.5,3a1.76,1.76,0,0,0,0-.2v0a2.22,2.22,0,0,0-1.61-2.5,2.19,2.19,0,0,0-2.58,1.44v0a1.76,1.76,0,0,0-.06.19,2.23,2.23,0,0,0,1.56,2.73A2.2,2.2,0,0,0,30,24.23Z"/><path class="cls-13" d="M27.36,25.89A2.2,2.2,0,0,0,30,24.23a1.76,1.76,0,0,0,0-.2,2.19,2.19,0,0,1-2.58,1.44A2.22,2.22,0,0,1,25.85,23a1.76,1.76,0,0,0-.06.19A2.23,2.23,0,0,0,27.36,25.89Z"/><path class="cls-14" d="M28.07,23c1.74-.28,1.26,2.07,1.5,1.11A1.77,1.77,0,0,0,28.33,22a1.75,1.75,0,0,0-2.1,1.32C26,24.24,27.56,23.09,28.07,23Z"/><path class="cls-15" d="M25.86,22.94a2.19,2.19,0,0,1,2.58-1.44A2.22,2.22,0,0,1,30,24v0a2.19,2.19,0,0,1-2.58,1.44A2.22,2.22,0,0,1,25.85,23Zm3.71,1.17A1.77,1.77,0,0,0,28.33,22a1.75,1.75,0,0,0-2.1,1.32c-.24,1,1.33-.18,1.84-.27C29.81,22.73,29.33,25.08,29.57,24.12Z"/></g><g id="_Grupo_8" data-name="&lt;Grupo&gt;"><path class="cls-12" d="M36,22.61a2.48,2.48,0,0,1,1.73,3,2.44,2.44,0,0,1-2.94,1.85,2.48,2.48,0,0,1-1.74-3A2.44,2.44,0,0,1,36,22.61Zm1.5,3a1.77,1.77,0,0,0,0-.2v0A2.22,2.22,0,0,0,36,22.85a2.19,2.19,0,0,0-2.58,1.44v0a1.74,1.74,0,0,0-.06.19,2.23,2.23,0,0,0,1.56,2.73A2.2,2.2,0,0,0,37.52,25.58Z"/><path class="cls-13" d="M34.88,27.25a2.2,2.2,0,0,0,2.64-1.66,1.77,1.77,0,0,0,0-.2A2.19,2.19,0,0,1,35,26.83a2.22,2.22,0,0,1-1.61-2.5,1.74,1.74,0,0,0-.06.19A2.23,2.23,0,0,0,34.88,27.25Z"/><path class="cls-14" d="M35.59,24.36c1.74-.28,1.26,2.07,1.5,1.11a1.77,1.77,0,0,0-1.24-2.17,1.75,1.75,0,0,0-2.1,1.32C33.51,25.59,35.08,24.45,35.59,24.36Z"/><path class="cls-15" d="M33.38,24.3A2.19,2.19,0,0,1,36,22.85a2.22,2.22,0,0,1,1.61,2.5v0A2.19,2.19,0,0,1,35,26.83a2.22,2.22,0,0,1-1.61-2.5Zm3.71,1.17a1.77,1.77,0,0,0-1.24-2.17,1.75,1.75,0,0,0-2.1,1.32c-.24,1,1.33-.18,1.84-.27C37.33,24.08,36.85,26.44,37.09,25.47Z"/></g><g id="_Grupo_9" data-name="&lt;Grupo&gt;"><path class="cls-12" d="M31.48,24.28a2.48,2.48,0,0,1,1.73,3,2.44,2.44,0,0,1-2.94,1.85,2.48,2.48,0,0,1-1.74-3A2.44,2.44,0,0,1,31.48,24.28Zm1.5,3a1.75,1.75,0,0,0,0-.2v0a2.22,2.22,0,0,0-1.61-2.5A2.19,2.19,0,0,0,28.84,26v0a1.75,1.75,0,0,0-.06.19,2.23,2.23,0,0,0,1.56,2.73A2.2,2.2,0,0,0,33,27.25Z"/><path class="cls-13" d="M30.34,28.92A2.2,2.2,0,0,0,33,27.25a1.75,1.75,0,0,0,0-.2,2.19,2.19,0,0,1-2.58,1.44A2.22,2.22,0,0,1,28.83,26a1.75,1.75,0,0,0-.06.19A2.23,2.23,0,0,0,30.34,28.92Z"/><path class="cls-14" d="M31,26c1.74-.28,1.26,2.07,1.5,1.11A1.77,1.77,0,0,0,31.31,25a1.75,1.75,0,0,0-2.1,1.32C29,27.26,30.55,26.12,31,26Z"/><path class="cls-15" d="M28.84,26a2.19,2.19,0,0,1,2.58-1.44A2.22,2.22,0,0,1,33,27v0a2.19,2.19,0,0,1-2.58,1.44A2.22,2.22,0,0,1,28.83,26Zm3.71,1.17A1.77,1.77,0,0,0,31.31,25a1.75,1.75,0,0,0-2.1,1.32c-.24,1,1.33-.18,1.84-.27C32.79,25.75,32.31,28.11,32.55,27.14Z"/></g><g id="_Grupo_10" data-name="&lt;Grupo&gt;"><path class="cls-12" d="M34,25a2.48,2.48,0,0,1,1.73,3,2.44,2.44,0,0,1-2.94,1.85,2.48,2.48,0,0,1-1.74-3A2.45,2.45,0,0,1,34,25Zm1.5,3a1.77,1.77,0,0,0,0-.2v0a2.22,2.22,0,0,0-1.61-2.5,2.19,2.19,0,0,0-2.58,1.44v0a1.75,1.75,0,0,0-.06.19,2.23,2.23,0,0,0,1.56,2.73A2.2,2.2,0,0,0,35.47,27.95Z"/><path class="cls-13" d="M32.83,29.61a2.2,2.2,0,0,0,2.64-1.66,1.77,1.77,0,0,0,0-.2,2.19,2.19,0,0,1-2.58,1.44,2.22,2.22,0,0,1-1.61-2.5,1.75,1.75,0,0,0-.06.19A2.23,2.23,0,0,0,32.83,29.61Z"/><path class="cls-14" d="M33.54,26.73c1.74-.28,1.26,2.07,1.5,1.11a1.77,1.77,0,0,0-1.24-2.16A1.75,1.75,0,0,0,31.7,27C31.46,28,33,26.81,33.54,26.73Z"/><path class="cls-15" d="M31.33,26.66a2.19,2.19,0,0,1,2.58-1.44,2.22,2.22,0,0,1,1.61,2.5v0a2.19,2.19,0,0,1-2.58,1.44,2.22,2.22,0,0,1-1.61-2.5ZM35,27.84a1.77,1.77,0,0,0-1.24-2.16A1.75,1.75,0,0,0,31.7,27c-.24,1,1.33-.18,1.84-.27C35.28,26.45,34.8,28.8,35,27.84Z"/></g></g></svg>