<svg xmlns="http://www.w3.org/2000/svg" viewBox="0 0 80.97 80.97"><defs><style>.cls-1{fill:#fff;}.cls-2{fill:#282723;}.cls-3{fill:#e3dbd8;}.cls-4{fill:#3a3934;}.cls-5{fill:#db6d23;}.cls-6{fill:#ff9239;}.cls-7{fill:#af5112;}.cls-8{fill:#cc6315;}.cls-9{fill:#ee801e;}</style></defs><title>iconos</title><g id="POST_2" data-name="POST 2"><path class="cls-1" d="M41,5c15.81,0,28.63,5.57,28.63,12.43S56.85,29.84,41,29.84,12.41,24.28,12.41,17.41,25.23,5,41,5ZM67.27,18.07c.35-.32-.52-1.94-1.94-3.59s-2.86-2.74-3.21-2.41.52,1.94,1.94,3.59S66.92,18.4,67.27,18.07Zm-3.49,4.86c2-.62,3.6-1.5,3.47-2s-1.9-.35-3.94.27-3.61,1.5-3.48,2S61.73,23.55,63.78,22.93ZM62,15.16c0-.49-1.73-.89-3.86-.89s-3.87.4-3.87.89,1.73.89,3.87.89S62,15.65,62,15.16Zm-2.46-3.92c.16-.46-1.33-1.46-3.33-2.22s-3.76-1-3.92-.55,1.33,1.46,3.33,2.22S59.43,11.7,59.59,11.24ZM58,24.38c0-.49-1.73-.89-3.86-.89s-3.87.39-3.87.89,1.73.89,3.87.89S58,24.86,58,24.38ZM51.6,20c1.91-1,3.29-2.15,3.08-2.59s-1.92,0-3.84,1S47.55,20.54,47.76,21,49.69,21,51.6,20Zm.07-4.18c.16-.46-1.33-1.45-3.33-2.22s-3.76-1-3.92-.55,1.33,1.45,3.33,2.22S51.51,16.27,51.67,15.81ZM46.25,9.68c1.91-1,3.29-2.14,3.08-2.59s-1.93,0-3.84,1-3.29,2.15-3.08,2.59S44.35,10.66,46.25,9.68ZM48.41,26.5C48.55,26,47,25.11,45,24.43s-3.79-.84-3.94-.38,1.39,1.39,3.42,2.07S48.27,27,48.41,26.5Zm-2.63-3.3c.35-.32-.52-1.94-1.94-3.59S41,16.87,40.63,17.2s.52,1.94,1.94,3.59S45.43,23.53,45.78,23.2Zm-4-7.83c.15-.47-1.39-1.4-3.42-2.07s-3.8-.84-3.94-.37,1.39,1.39,3.42,2.07S41.61,15.84,41.75,15.38Zm.77-8c0-.49-1.73-.89-3.86-.89s-3.87.39-3.87.89,1.73.89,3.87.89S42.53,7.83,42.53,7.35Zm-3,13.39c0-.49-1.73-.89-3.86-.89s-3.87.4-3.87.89,1.73.89,3.87.89S39.55,21.23,39.55,20.73Zm-1.92,5.88c0-.49-1.73-.89-3.86-.89s-3.86.4-3.86.89,1.73.89,3.86.89S37.63,27.11,37.63,26.61ZM31.21,14.08c.44-.17.3-1.65-.31-3.31S29.47,7.91,29,8.08s-.3,1.65.31,3.31S30.78,14.25,31.21,14.08Zm-.73,3.27c.14-.47-1.39-1.4-3.42-2.07s-3.8-.84-3.94-.37S24.51,16.3,26.54,17,30.34,17.82,30.48,17.35Zm-11.13-3c1.91-1,3.29-2.14,3.08-2.59s-1.93,0-3.84,1-3.29,2.15-3.08,2.59S17.44,15.37,19.35,14.38Zm2.72,5.93c0-.49-1.7-.94-3.84-1s-3.87.28-3.89.77,1.7.94,3.84,1S22.05,20.81,22.07,20.32Z"/><path class="cls-2" d="M70.73,17.41V64.1c0,5.37-6.76,10-16.59,12.24a36.58,36.58,0,0,0,6.68-4.59c.56-.48,1.15-1.16.93-1.88l-3.7-1.46c-.46-.18-1-.53-.9-1a1.08,1.08,0,0,1,.61-.64l4-2.24c6.17-3.89-17.88-3-14.27-5.9,3.77-3.23,9.35-2.82,13.6-5.31-3.15-1.42-11-.08-9.67-3.65,0-1.92,1.89-3.17,3.57-4,3.18-1.51,15-1.87,9.88-3.69l-9.59-4.32c-.36-.16-.77-.38-.87-.78s.3-.93.67-1.25l5.58-4.77c3.23-3.1-8.29,1.82-14.75,0C60,29.81,70.73,24.18,70.73,17.41Z"/><path class="cls-3" d="M65.33,14.48c1.43,1.66,2.29,3.27,1.94,3.59s-1.79-.75-3.21-2.41-2.29-3.27-1.94-3.59S63.91,12.82,65.33,14.48Z"/><path class="cls-3" d="M67.25,21c.13.47-1.43,1.35-3.47,2s-3.82.73-3.95.26,1.43-1.35,3.48-2S67.12,20.48,67.25,21Z"/><path d="M64.82,42c5.08,1.82-6.7,2.17-9.88,3.69-1.68.8-3.56,2.05-3.57,4C50,53.24,57.9,51.9,61,53.32c-4.25,2.48-9.83,2.08-13.6,5.31-3.61,2.91,20.44,2,14.27,5.9l-4,2.24a1.08,1.08,0,0,0-.61.64c-.1.49.45.84.9,1l3.7,1.46c.22.71-.37,1.4-.93,1.88a36.58,36.58,0,0,1-6.68,4.59A59.79,59.79,0,0,1,41,77.74c-1.61,0-3.19-.06-4.73-.18a68.16,68.16,0,0,1-14.19-6c-1-.57-2.17-1.52-1.87-2.66l8.07-.59c.54,0,1.28-.37,1.08-.89a33.44,33.44,0,0,1-6.22-3.84c-.27-.21-.56-.47-.55-.82s.51-.71.94-.85L32,59l-11.5-6.78c-.39-.23-.85-.58-.78-1s.43-.59.76-.75l6.17-3c.86-.42,1.87-1.12,1.69-2.08a2.23,2.23,0,0,0-1-1.26L22,40.17a6,6,0,0,1-1.68-1.62,2.07,2.07,0,0,1-.15-.29,2,2,0,0,1,.1-2c.5-.69,1.44-.81,2.21-1.14,3-1.29-1.26-2.85-.83-4.74.36-1.62,2-1.69,3.34-1.52h0A57.6,57.6,0,0,0,41,31c1.65,0,3.26-.06,4.83-.18,6.46,1.85,18-3.07,14.75,0L55,35.66c-.37.32-.79.76-.67,1.25s.5.61.87.78Z"/><path class="cls-4" d="M25,28.9h0a32.36,32.36,0,0,1-7.89-3.4c-3.62-2.25-5.77-5-5.79-8.06v0C11.35,9.88,24.64,3.78,41,3.78s29.68,6.1,29.68,13.63c0,6.77-10.76,12.4-24.85,13.45C44.3,31,42.69,31,41,31A57.6,57.6,0,0,1,25,28.9ZM69.67,17.41C69.67,10.55,56.85,5,41,5S12.41,10.55,12.41,17.41,25.23,29.84,41,29.84,69.67,24.28,69.67,17.41Z"/><ellipse class="cls-3" cx="58.19" cy="15.16" rx="3.86" ry="0.89"/><path class="cls-3" d="M56.26,9c2,.76,3.5,1.76,3.33,2.22s-1.91.21-3.92-.55-3.5-1.76-3.33-2.22S54.25,8.25,56.26,9Z"/><ellipse class="cls-3" cx="54.12" cy="24.38" rx="3.86" ry="0.89"/><path class="cls-3" d="M54.68,17.4c.21.44-1.17,1.6-3.08,2.59S48,21.42,47.76,21s1.17-1.6,3.08-2.58S54.47,17,54.68,17.4Z"/><path class="cls-3" d="M48.34,13.59c2,.77,3.5,1.76,3.33,2.22s-1.92.21-3.92-.55S44.26,13.5,44.42,13,46.33,12.83,48.34,13.59Z"/><path class="cls-3" d="M49.34,7.09c.21.44-1.17,1.6-3.08,2.59s-3.63,1.43-3.84,1,1.17-1.6,3.08-2.59S49.13,6.65,49.34,7.09Z"/><path class="cls-3" d="M45,24.43c2,.67,3.57,1.6,3.42,2.07s-1.9.3-3.94-.38-3.57-1.6-3.42-2.07S43,23.75,45,24.43Z"/><path class="cls-3" d="M43.84,19.61c1.43,1.66,2.29,3.27,1.94,3.59S44,22.45,42.57,20.8s-2.29-3.27-1.94-3.59S42.42,18,43.84,19.61Z"/><path class="cls-3" d="M38.33,13.3c2,.67,3.57,1.6,3.42,2.07s-1.9.3-3.94-.38-3.56-1.6-3.42-2.07S36.3,12.63,38.33,13.3Z"/><ellipse class="cls-3" cx="38.66" cy="7.35" rx="3.86" ry="0.89"/><ellipse class="cls-3" cx="35.69" cy="20.73" rx="3.86" ry="0.89"/><ellipse class="cls-3" cx="33.77" cy="26.61" rx="3.86" ry="0.89"/><path class="cls-2" d="M22.11,71.53a68.16,68.16,0,0,0,14.19,6c-9.24-.67-17-3.31-21.36-6.94-.14-1.66,4.7-2.9,2.09-4.28a7.44,7.44,0,0,1-2.86-2.48c-.62-1.12-.5-2.79.59-3.43.79-.47,3.23-2,3.09-2.91a1.46,1.46,0,0,0-.54-.79c-1.66-1.53-1.5-2.1-3.16-3.63a1.44,1.44,0,0,1-.51-.74c-.11-.63.6-1.05,1.19-1.27,2.27-.85,4.82-2.75,3-4.08-4.22-1.45-3.33-3.23-2.58-4.34A7.3,7.3,0,0,1,17.58,41a2.48,2.48,0,0,0,1.36-2.35c0-.08,0-.15-.06-.22l1.34-.13a2.07,2.07,0,0,0,.15.29A6,6,0,0,0,22,40.17L27.3,44a2.23,2.23,0,0,1,1,1.26c.18,1-.83,1.66-1.69,2.08l-6.17,3c-.33.16-.7.38-.76.75s.38.81.78,1L32,59l-8.42,2.91c-.43.14-.93.39-.94.85s.28.61.55.82a33.44,33.44,0,0,0,6.22,3.84c.2.52-.54.84-1.08.89l-8.07.59C19.95,70,21.1,71,22.11,71.53Z"/><path class="cls-3" d="M30.91,10.77c.6,1.66.74,3.14.31,3.31s-1.27-1-1.87-2.69S28.6,8.25,29,8.08,30.31,9.11,30.91,10.77Z"/><path class="cls-3" d="M27.06,15.28c2,.67,3.57,1.6,3.42,2.07s-1.91.3-3.94-.38S23,15.37,23.12,14.9,25,14.6,27.06,15.28Z"/><path class="cls-2" d="M25,28.9c-1.38-.17-3-.1-3.34,1.52-.43,1.89,3.81,3.46.83,4.74-.77.33-1.71.46-2.21,1.14a2,2,0,0,0-.1,2l-1.34.13a2.71,2.71,0,0,0-1-1.19c-1.51-1.11-4.2-1-4.22-3,0-1.54,6-1.18,3.28-4.39a4.72,4.72,0,0,1-1.36-2.53c-.06-.93.7-2,1.57-1.83A32.36,32.36,0,0,0,25,28.9Z"/><path class="cls-3" d="M22.43,11.79c.21.44-1.17,1.6-3.08,2.59s-3.63,1.43-3.84,1,1.17-1.6,3.08-2.59S22.22,11.36,22.43,11.79Z"/><ellipse class="cls-3" cx="18.2" cy="20.2" rx="0.89" ry="3.86" transform="translate(-2.48 37.86) rotate(-88.47)"/><path class="cls-4" d="M18.94,38.61A2.48,2.48,0,0,1,17.58,41a7.3,7.3,0,0,0-2.28,1.71c-.76,1.11-1.65,2.9,2.58,4.34,1.8,1.32-.75,3.22-3,4.08-.59.22-1.3.64-1.19,1.27a1.44,1.44,0,0,0,.51.74c1.66,1.53,1.5,2.1,3.16,3.63a1.46,1.46,0,0,1,.54.79c.14.92-2.3,2.45-3.09,2.91-1.09.64-1.21,2.31-.59,3.43A7.44,7.44,0,0,0,17,66.34c2.6,1.38-2.24,2.62-2.09,4.28-2.29-1.94-3.6-4.16-3.6-6.52V17.44c0,3,2.17,5.8,5.79,8.06-.87-.13-1.64.89-1.57,1.83a4.72,4.72,0,0,0,1.36,2.53c2.77,3.21-3.3,2.85-3.28,4.39,0,1.9,2.71,1.84,4.22,3a2.71,2.71,0,0,1,1,1.19C18.9,38.46,18.92,38.53,18.94,38.61Z"/><path class="cls-3" d="M26.24,24c1.91-1,3.29-2.14,3.08-2.58s-1.92,0-3.84,1S22.2,24.52,22.4,25,24.33,25,26.24,24Z"/><g id="_Grupo_" data-name="&lt;Grupo&gt;"><path class="cls-5" d="M51.74,10.3c1.51,1.51.28,2.92-2.53,3.9.37-1.37.79-2.71,1.28-4h0a9.72,9.72,0,0,1,1.25.14Z"/><path class="cls-5" d="M49.25,10.14A35,35,0,0,0,47,14.79a33.3,33.3,0,0,1-5.13.66,37.46,37.46,0,0,1,2.32-5.23C46.17,10.17,48,10.14,49.25,10.14Z"/><path class="cls-5" d="M41.51,10.29a36.59,36.59,0,0,0-2.4,5.22c-.78,0-1.58,0-2.38-.08-.53,0-1-.08-1.45-.13.39-1.62.83-3.23,1.33-4.81C37.37,10.43,39.31,10.36,41.51,10.29Z"/><path class="cls-5" d="M35.26,10.69a31.88,31.88,0,0,0-2.19,4.25c-4.19-1.09-.5-3.3-.19-3.48h0A10.9,10.9,0,0,1,35.26,10.69Z"/><path class="cls-6" d="M49.25,10.14l1.23,0c-.48,1.33-.9,2.68-1.28,4a19,19,0,0,1-2.16.6A35,35,0,0,1,49.25,10.14Z"/><path class="cls-6" d="M44.23,10.22a37.46,37.46,0,0,0-2.32,5.23c-.9.05-1.84.08-2.8.06a36.59,36.59,0,0,1,2.4-5.22Z"/><path class="cls-6" d="M33.07,14.93a31.88,31.88,0,0,1,2.19-4.25,10.92,10.92,0,0,1,1.19-.18h.16c-.5,1.58-.94,3.19-1.33,4.81A15.24,15.24,0,0,1,33.07,14.93Z"/><path class="cls-7" d="M48.82,22.43a9.77,9.77,0,0,0,2.33-.22c-.14.63-.27,1.26-.4,1.88-.48,0-1,.05-1.45.05H46.91l.36-1.71Z"/><path class="cls-7" d="M39.9,22.43h4.81c-.14.57-.27,1.14-.4,1.72h-4.8C39.63,23.57,39.76,23,39.9,22.43Z"/><path class="cls-7" d="M35.09,22.43h2c-.14.57-.27,1.14-.4,1.72H33.34c.13-.57.25-1.14.37-1.72Z"/><path class="cls-7" d="M27.29,20.73a2.75,2.75,0,0,0,1.35.92,11,11,0,0,0,2,.53c-.15.58-.3,1.16-.44,1.75a12.13,12.13,0,0,1-2.36-.57,3,3,0,0,1-1.44-.92,3.33,3.33,0,0,1-.25-2.73,12.37,12.37,0,0,1,1.47-3.55A12.75,12.75,0,0,0,27.05,18,3.49,3.49,0,0,0,27.29,20.73Z"/><path class="cls-8" d="M53,21a5.51,5.51,0,0,0,.83-2.43,21.7,21.7,0,0,0,.35-6.14,9.49,9.49,0,0,0-.14-1,3,3,0,0,1,.32.41A5.2,5.2,0,0,1,55,14.16a20.46,20.46,0,0,1-.37,6.14,5.34,5.34,0,0,1-.88,2.43,4.14,4.14,0,0,1-3,1.35c.13-.63.26-1.25.4-1.88A3.23,3.23,0,0,0,53,21Z"/><path class="cls-8" d="M49.21,14.2c2.81-1,4-2.39,2.53-3.9h0a4.29,4.29,0,0,1,2.18,1A98.45,98.45,0,0,0,51.15,22.2a9.77,9.77,0,0,1-2.33.22H47.28C47.86,19.67,48.45,16.91,49.21,14.2Z"/><path class="cls-8" d="M44.71,22.43h2.57l-.36,1.71H44.3C44.44,23.57,44.57,23,44.71,22.43Z"/><path class="cls-8" d="M47,14.79a59,59,0,0,0-2.34,7.63H39.9a65.26,65.26,0,0,1,2-7A33.3,33.3,0,0,0,47,14.79Z"/><path class="cls-8" d="M37.06,22.43H39.9c-.14.57-.27,1.14-.39,1.71H36.65C36.78,23.57,36.92,23,37.06,22.43Z"/><path class="cls-8" d="M39.11,15.51a61.71,61.71,0,0,0-2.05,6.92H33.71c.5-2.36,1-4.76,1.57-7.12.44,0,.92.09,1.45.13C37.53,15.48,38.33,15.51,39.11,15.51Z"/><path class="cls-8" d="M32.88,11.45c-.31.18-4,2.39.19,3.48a50.62,50.62,0,0,0-2.43,7.26,11,11,0,0,1-2-.53,2.75,2.75,0,0,1-1.35-.92A3.49,3.49,0,0,1,27.05,18a12.75,12.75,0,0,1,.56-1.84A12.09,12.09,0,0,1,31.86,12,10.45,10.45,0,0,1,32.88,11.45Z"/><path class="cls-8" d="M33.71,22.42c-.12.58-.25,1.15-.37,1.72a24,24,0,0,1-3.14-.2c.14-.59.28-1.17.44-1.75A20.49,20.49,0,0,0,33.71,22.42Z"/><path class="cls-9" d="M54.2,12.44a21.7,21.7,0,0,1-.35,6.14A5.51,5.51,0,0,1,53,21a3.23,3.23,0,0,1-1.88,1.19,98.45,98.45,0,0,1,2.77-10.92,1.16,1.16,0,0,1,.15.14A9.49,9.49,0,0,1,54.2,12.44Z"/><path class="cls-9" d="M49.21,14.2c-.76,2.71-1.35,5.48-1.93,8.23H44.71A59,59,0,0,1,47,14.79,19,19,0,0,0,49.21,14.2Z"/><path class="cls-9" d="M41.91,15.45a65.26,65.26,0,0,0-2,7H37.06a61.71,61.71,0,0,1,2.05-6.92C40.07,15.53,41,15.51,41.91,15.45Z"/><path class="cls-9" d="M35.28,15.3c-.57,2.36-1.06,4.76-1.57,7.12a20.49,20.49,0,0,1-3.08-.24,50.62,50.62,0,0,1,2.43-7.26A15.24,15.24,0,0,0,35.28,15.3Z"/></g></g></svg>